<svg xmlns="http://www.w3.org/2000/svg" xmlns:xlink="http://www.w3.org/1999/xlink" width="122" height="39" viewBox="0 0 122 39">
  <defs>
    <clipPath id="clip-Present_continous">
      <rect width="122" height="39"/>
    </clipPath>
  </defs>
  <g id="Present_continous" data-name="Present continous" clip-path="url(#clip-Present_continous)">
    <g id="Timeline" transform="translate(-3 -4)">
      <g id="Lines" transform="translate(6 11)">
        <line id="Line-Past" y2="12" transform="translate(6.5 3.5)" fill="none" stroke="#fff" stroke-width="1"/>
        <line id="Line-Present" y2="12" transform="translate(56.5 3.5)" fill="none" stroke="#fff" stroke-width="1"/>
        <line id="Line-Future" y2="12" transform="translate(106.5 3.5)" fill="none" stroke="#fff" stroke-width="1"/>
        <line id="Timeline-Line" x2="100" transform="translate(6.5 9.5)" fill="none" stroke="#fff" stroke-width="1"/>
      </g>
      <g id="Legend">
        <path id="Pfad_12" data-name="Pfad 12" d="M1.589-3.569a1.442,1.442,0,0,1,1.008.3,1.063,1.063,0,0,1,.317.817,1.415,1.415,0,0,1-.071.448.991.991,0,0,1-.231.38,1.1,1.1,0,0,1-.426.262,1.942,1.942,0,0,1-.657.1H1.206V0H.449V-3.569Zm-.039.62H1.206v1.06h.249a1.091,1.091,0,0,0,.369-.056.491.491,0,0,0,.242-.176.517.517,0,0,0,.085-.308A.493.493,0,0,0,2-2.821.677.677,0,0,0,1.55-2.949Zm3.1.164a1.3,1.3,0,0,1,.842.239.884.884,0,0,1,.293.728V0h-.52L5.12-.371H5.1a1.383,1.383,0,0,1-.239.239A.821.821,0,0,1,4.58,0a1.463,1.463,0,0,1-.386.044.982.982,0,0,1-.433-.093.687.687,0,0,1-.3-.284.97.97,0,0,1-.11-.487.719.719,0,0,1,.305-.641,1.763,1.763,0,0,1,.916-.228L5.044-1.7v-.12a.4.4,0,0,0-.112-.315.453.453,0,0,0-.312-.1,1.366,1.366,0,0,0-.388.056,3.009,3.009,0,0,0-.381.142l-.247-.5a2.113,2.113,0,0,1,.487-.181A2.342,2.342,0,0,1,4.648-2.786Zm.4,1.521-.288.01a.825.825,0,0,0-.5.129.394.394,0,0,0-.14.315.279.279,0,0,0,.1.243A.437.437,0,0,0,4.475-.5a.6.6,0,0,0,.4-.142.5.5,0,0,0,.165-.4Zm3.411.454a.815.815,0,0,1-.131.47.8.8,0,0,1-.389.291,1.819,1.819,0,0,1-.645.1A2.814,2.814,0,0,1,6.8.012,2.016,2.016,0,0,1,6.389-.11V-.725a2.887,2.887,0,0,0,.477.165A1.854,1.854,0,0,0,7.314-.5.567.567,0,0,0,7.626-.56.2.2,0,0,0,7.72-.73a.212.212,0,0,0-.038-.123A.5.5,0,0,0,7.52-.978a4.288,4.288,0,0,0-.391-.182,2.531,2.531,0,0,1-.421-.217.718.718,0,0,1-.244-.26.814.814,0,0,1-.079-.382.636.636,0,0,1,.294-.57,1.425,1.425,0,0,1,.787-.192,2.229,2.229,0,0,1,.485.051,2.369,2.369,0,0,1,.475.164L8.2-2.029a3.871,3.871,0,0,0-.382-.144,1.215,1.215,0,0,0-.365-.056.543.543,0,0,0-.247.044.143.143,0,0,0-.083.134.178.178,0,0,0,.043.117.542.542,0,0,0,.166.114q.123.062.363.16a2.9,2.9,0,0,1,.4.2.766.766,0,0,1,.264.256A.75.75,0,0,1,8.455-.811Zm1.731.266a1.152,1.152,0,0,0,.238-.024,2.352,2.352,0,0,0,.231-.061v.554a1.4,1.4,0,0,1-.3.089,1.975,1.975,0,0,1-.387.035,1.149,1.149,0,0,1-.438-.079.611.611,0,0,1-.305-.276,1.122,1.122,0,0,1-.111-.548V-2.17H8.76v-.315l.41-.249.215-.576h.476v.581h.764v.559H9.861V-.854a.291.291,0,0,0,.089.233A.348.348,0,0,0,10.186-.544Z" transform="translate(7 12)" fill="#fff"/>
        <path id="Pfad_11" data-name="Pfad 11" d="M1.589-3.569a1.442,1.442,0,0,1,1.008.3,1.063,1.063,0,0,1,.317.817,1.415,1.415,0,0,1-.071.448.991.991,0,0,1-.231.38,1.1,1.1,0,0,1-.426.262,1.942,1.942,0,0,1-.657.1H1.206V0H.449V-3.569Zm-.039.62H1.206v1.06h.249a1.091,1.091,0,0,0,.369-.056.491.491,0,0,0,.242-.176.517.517,0,0,0,.085-.308A.493.493,0,0,0,2-2.821.677.677,0,0,0,1.55-2.949Zm3.5.168q.056,0,.131.006a1.008,1.008,0,0,1,.121.016l-.056.7a.483.483,0,0,0-.1-.018q-.067-.006-.116-.006a1.067,1.067,0,0,0-.28.037.7.7,0,0,0-.243.118.566.566,0,0,0-.17.215.766.766,0,0,0-.062.326V0H3.53V-2.729h.564l.11.459h.037a1.154,1.154,0,0,1,.2-.255.967.967,0,0,1,.276-.186A.81.81,0,0,1,5.054-2.781Zm1.873,0a1.372,1.372,0,0,1,.652.145A1.009,1.009,0,0,1,8-2.214a1.4,1.4,0,0,1,.149.674v.361H6.389a.715.715,0,0,0,.189.494.66.66,0,0,0,.492.179,1.994,1.994,0,0,0,.479-.054A2.435,2.435,0,0,0,8-.72v.576A1.777,1.777,0,0,1,7.572,0a2.652,2.652,0,0,1-.536.046A1.663,1.663,0,0,1,6.31-.1a1.121,1.121,0,0,1-.5-.461,1.541,1.541,0,0,1-.179-.781,1.746,1.746,0,0,1,.162-.8,1.1,1.1,0,0,1,.453-.479A1.38,1.38,0,0,1,6.926-2.781Zm0,.53a.5.5,0,0,0-.36.139.658.658,0,0,0-.165.437H7.451a.75.75,0,0,0-.06-.3.469.469,0,0,0-.171-.205A.511.511,0,0,0,6.931-2.251Zm3.728,1.44a.815.815,0,0,1-.131.47.8.8,0,0,1-.389.291,1.819,1.819,0,0,1-.645.1,2.814,2.814,0,0,1-.49-.037A2.016,2.016,0,0,1,8.594-.11V-.725a2.887,2.887,0,0,0,.477.165A1.854,1.854,0,0,0,9.519-.5.567.567,0,0,0,9.83-.56a.2.2,0,0,0,.094-.17.212.212,0,0,0-.038-.123.5.5,0,0,0-.162-.125,4.288,4.288,0,0,0-.391-.182,2.531,2.531,0,0,1-.421-.217.718.718,0,0,1-.244-.26.814.814,0,0,1-.079-.382.636.636,0,0,1,.294-.57,1.425,1.425,0,0,1,.787-.192,2.229,2.229,0,0,1,.485.051,2.369,2.369,0,0,1,.475.164l-.225.537a3.871,3.871,0,0,0-.382-.144,1.215,1.215,0,0,0-.365-.056.543.543,0,0,0-.247.044.143.143,0,0,0-.083.134.178.178,0,0,0,.043.117.542.542,0,0,0,.166.114q.123.062.363.16a2.9,2.9,0,0,1,.4.2.766.766,0,0,1,.264.256A.75.75,0,0,1,10.659-.811Zm1.707-1.97a1.372,1.372,0,0,1,.652.145,1.009,1.009,0,0,1,.422.421,1.4,1.4,0,0,1,.149.674v.361h-1.76a.715.715,0,0,0,.189.494.66.66,0,0,0,.492.179,1.994,1.994,0,0,0,.479-.054,2.435,2.435,0,0,0,.447-.161v.576A1.777,1.777,0,0,1,13.011,0a2.652,2.652,0,0,1-.536.046A1.663,1.663,0,0,1,11.749-.1a1.121,1.121,0,0,1-.5-.461,1.541,1.541,0,0,1-.179-.781,1.746,1.746,0,0,1,.162-.8,1.1,1.1,0,0,1,.453-.479A1.38,1.38,0,0,1,12.366-2.781Zm0,.53a.5.5,0,0,0-.36.139.658.658,0,0,0-.165.437h1.045a.75.75,0,0,0-.06-.3.469.469,0,0,0-.171-.205A.511.511,0,0,0,12.371-2.251Zm3.374-.53a1.015,1.015,0,0,1,.7.238.976.976,0,0,1,.266.763V0h-.745V-1.594a.76.76,0,0,0-.106-.442.381.381,0,0,0-.333-.149.481.481,0,0,0-.466.232,1.443,1.443,0,0,0-.125.669V0h-.745V-2.729h.569l.1.349H14.9a.747.747,0,0,1,.219-.229.938.938,0,0,1,.291-.129A1.311,1.311,0,0,1,15.745-2.781ZM18.63-.544a1.152,1.152,0,0,0,.238-.024A2.352,2.352,0,0,0,19.1-.63v.554a1.4,1.4,0,0,1-.3.089,1.975,1.975,0,0,1-.387.035,1.149,1.149,0,0,1-.438-.079.611.611,0,0,1-.305-.276,1.122,1.122,0,0,1-.111-.548V-2.17H17.2v-.315l.41-.249.215-.576h.476v.581h.764v.559h-.764V-.854a.291.291,0,0,0,.089.233A.348.348,0,0,0,18.63-.544Z" transform="translate(53 12)" fill="#fff"/>
        <path id="Pfad_10" data-name="Pfad 10" d="M1.194,0H.449V-3.569H2.5v.62h-1.3v.92H2.4v.618H1.194ZM5.64-2.729V0H5.068l-.1-.349H4.929a.751.751,0,0,1-.22.227.955.955,0,0,1-.291.129,1.3,1.3,0,0,1-.33.042,1.173,1.173,0,0,1-.51-.1.746.746,0,0,1-.338-.323A1.181,1.181,0,0,1,3.12-.95v-1.78h.745v1.594a.767.767,0,0,0,.1.442A.381.381,0,0,0,4.3-.544a.555.555,0,0,0,.356-.1.556.556,0,0,0,.182-.305A1.979,1.979,0,0,0,4.9-1.445V-2.729ZM7.571-.544a1.152,1.152,0,0,0,.238-.024A2.352,2.352,0,0,0,8.04-.63v.554a1.4,1.4,0,0,1-.3.089,1.975,1.975,0,0,1-.387.035,1.149,1.149,0,0,1-.438-.079.611.611,0,0,1-.305-.276A1.122,1.122,0,0,1,6.5-.854V-2.17H6.145v-.315l.41-.249.215-.576h.476v.581H8.01v.559H7.246V-.854a.291.291,0,0,0,.089.233A.348.348,0,0,0,7.571-.544ZM11.1-2.729V0h-.571l-.1-.349h-.039a.751.751,0,0,1-.22.227.955.955,0,0,1-.291.129,1.3,1.3,0,0,1-.33.042,1.173,1.173,0,0,1-.51-.1A.746.746,0,0,1,8.7-.378,1.181,1.181,0,0,1,8.577-.95v-1.78h.745v1.594a.767.767,0,0,0,.1.442.381.381,0,0,0,.334.149.555.555,0,0,0,.356-.1A.556.556,0,0,0,10.3-.953a1.979,1.979,0,0,0,.052-.492V-2.729Zm2.3-.051q.056,0,.131.006a1.008,1.008,0,0,1,.121.016l-.056.7a.483.483,0,0,0-.1-.018q-.067-.006-.116-.006a1.067,1.067,0,0,0-.28.037.7.7,0,0,0-.243.118.566.566,0,0,0-.17.215.766.766,0,0,0-.062.326V0h-.745V-2.729h.564l.11.459h.037a1.154,1.154,0,0,1,.2-.255.967.967,0,0,1,.276-.186A.81.81,0,0,1,13.4-2.781Zm1.873,0a1.372,1.372,0,0,1,.652.145,1.009,1.009,0,0,1,.422.421,1.4,1.4,0,0,1,.149.674v.361h-1.76a.715.715,0,0,0,.189.494.66.66,0,0,0,.492.179A1.994,1.994,0,0,0,15.9-.559a2.435,2.435,0,0,0,.447-.161v.576A1.777,1.777,0,0,1,15.919,0a2.652,2.652,0,0,1-.536.046A1.663,1.663,0,0,1,14.657-.1a1.121,1.121,0,0,1-.5-.461,1.541,1.541,0,0,1-.179-.781,1.746,1.746,0,0,1,.162-.8,1.1,1.1,0,0,1,.453-.479A1.38,1.38,0,0,1,15.273-2.781Zm0,.53a.5.5,0,0,0-.36.139.658.658,0,0,0-.165.437H15.8a.75.75,0,0,0-.06-.3.469.469,0,0,0-.171-.205A.511.511,0,0,0,15.278-2.251Z" transform="translate(104 12)" fill="#fff"/>
      </g>
    </g>
    <g id="Gruppe_1" data-name="Gruppe 1">
      <line id="Linie_4" data-name="Linie 4" y2="7" transform="translate(54.5 23.5)" fill="none" stroke="#ff5353" stroke-width="1"/>
      <line id="Linie_5" data-name="Linie 5" y2="7" transform="translate(75.5 23.5)" fill="none" stroke="#ff5353" stroke-width="1"/>
      <line id="Linie_6" data-name="Linie 6" x2="21" transform="translate(54.5 27)" fill="none" stroke="#ff5353" stroke-width="1"/>
    </g>
    <g id="Gruppe_2" data-name="Gruppe 2" transform="translate(-1 1)">
      <line id="Linie_7" data-name="Linie 7" x2="6" transform="translate(62.5 30.5)" fill="none" stroke="#ff5353" stroke-linecap="round" stroke-width="1"/>
      <line id="Linie_8" data-name="Linie 8" x2="2" y2="2" transform="translate(66.5 28.5)" fill="none" stroke="#ff5353" stroke-linecap="round" stroke-width="1"/>
      <line id="Linie_9" data-name="Linie 9" y1="2" x2="2" transform="translate(66.5 30.5)" fill="none" stroke="#ff5353" stroke-linecap="round" stroke-width="1"/>
    </g>
  </g>
</svg>
