<?xml version="1.0" encoding="UTF-8" standalone="yes"?>
<svg xmlns="http://www.w3.org/2000/svg" xmlns:xlink="http://www.w3.org/1999/xlink" width="1374.094pt" height="744.368pt" version="1.1" viewBox="-607.397 398.763 1374.094 744.368">
  <!--
	Exported with Concepts: Smarter Sketching
	Version: 2032 on iOS 16.6
	https://concepts.app/
	-->
  <title>2F35E013-0EDE-4632-B5D1-44C341453FD5</title>
  <desc>Drawing exported from Concepts: Smarter Sketching</desc>
  <defs></defs>
  <g id="Stift" opacity="1.000">
    <path id="STROKE_e94752a8-84ab-422c-97f7-d90c6ba9d5b1" opacity="1.000" fill="none" stroke="#ffffff" stroke-width="5.070" stroke-opacity="1.000" stroke-linecap="round" stroke-linejoin="round" d="M -221.415 527.978 Q -222.401 527.978 -222.053 527.978 Q -222.090 527.978 -222.290 527.978 Q -222.826 527.899 -221.984 533.081 Q -221.143 538.262 -220.285 548.023 Q -219.427 557.785 -220.331 567.963 Q -220.359 567.963 -220.504 567.963 Q -220.611 566.557 -220.632 566.843 "></path>
    <path id="STROKE_00ca4682-e63e-4b3e-a204-6003c4ebb163" opacity="1.000" fill="none" stroke="#ffffff" stroke-width="4.611" stroke-opacity="1.000" stroke-linecap="round" stroke-linejoin="round" d="M -193.340 531.223 Q -194.206 530.509 -193.969 530.733 Q -194.353 530.497 -194.864 530.367 Q -195.375 530.238 -195.275 530.300 Q -195.174 530.363 -195.244 530.371 Q -195.314 530.379 -195.599 530.292 Q -195.884 530.205 -196.159 530.356 Q -196.433 530.507 -196.783 530.915 Q -197.132 531.322 -197.124 531.479 Q -197.117 531.635 -197.242 532.018 Q -197.368 532.401 -197.738 533.883 Q -198.108 535.365 -198.352 540.338 Q -198.597 545.311 -197.267 551.888 Q -195.937 558.465 -194.597 568.166 Q -194.695 568.169 -195.872 564.794 "></path>
    <path id="STROKE_eaa68e6a-a73f-4215-a582-2566d2c8f7bc" opacity="1.000" fill="none" stroke="#ffffff" stroke-width="5.799" stroke-opacity="1.000" stroke-linecap="round" stroke-linejoin="round" d="M -203.543 551.088 Q -203.543 551.056 -203.506 550.885 Q -204.309 550.989 -200.584 550.842 Q -196.859 550.695 -194.915 550.835 Q -192.972 550.974 -191.598 551.282 Q -190.224 551.590 -188.913 552.539 "></path>
    <path id="STROKE_ca890dba-757d-4896-ac24-5db8426683c4" opacity="1.000" fill="none" stroke="#ffffff" stroke-width="5.244" stroke-opacity="1.000" stroke-linecap="round" stroke-linejoin="round" d="M -132.361 528.640 Q -132.427 528.497 -132.720 528.211 Q -133.014 527.925 -133.080 527.863 Q -133.146 527.800 -133.108 527.845 Q -133.070 527.890 -133.213 527.749 Q -133.355 527.608 -133.819 527.125 Q -133.818 528.112 -133.782 528.048 Q -133.792 529.967 -133.552 529.491 Q -133.311 529.016 -132.583 536.544 Q -131.854 544.073 -131.862 550.473 Q -131.870 556.874 -132.361 562.605 Q -133.228 562.289 -133.026 562.401 Q -133.126 562.401 -133.891 562.478 Q -133.891 562.510 -134.019 562.872 "></path>
    <path id="STROKE_704bab02-aac2-45c6-a23b-6e1795c61e1b" opacity="1.000" fill="none" stroke="#ffffff" stroke-width="4.157" stroke-opacity="1.000" stroke-linecap="round" stroke-linejoin="round" d="M -83.826 525.738 Q -83.826 525.700 -84.281 525.407 Q -84.804 525.649 -82.973 532.793 Q -81.143 539.938 -80.810 560.085 Q -80.838 560.085 -80.983 560.054 Q -80.703 560.482 -81.161 559.636 Q -81.620 558.790 -81.832 556.152 Q -82.045 553.513 -81.692 551.220 Q -81.340 548.927 -80.896 547.742 Q -80.452 546.557 -80.038 545.626 Q -79.624 544.695 -78.641 543.155 Q -77.657 541.614 -76.545 540.997 Q -75.433 540.380 -73.307 539.683 Q -71.181 538.986 -69.547 540.688 Q -67.912 542.391 -67.086 546.454 Q -66.260 550.517 -68.859 560.715 Q -68.986 560.747 -69.159 560.747 Q -69.219 560.216 -68.850 558.304 "></path>
    <path id="STROKE_57eef877-4a64-4f90-ab42-e9eac73e4e0b" opacity="1.000" fill="none" stroke="#ffffff" stroke-width="3.244" stroke-opacity="1.000" stroke-linecap="round" stroke-linejoin="round" d="M -53.764 545.527 Q -52.472 546.297 -52.862 546.259 Q -52.013 546.949 -50.576 559.564 Q -50.512 558.902 -51.112 556.109 Q -51.711 553.316 -52.726 551.593 Q -53.741 549.869 -54.628 549.046 Q -55.515 548.222 -56.450 548.097 Q -57.384 547.971 -57.445 547.966 Q -57.506 547.961 -58.464 548.248 Q -59.421 548.535 -59.935 551.067 Q -60.449 553.599 -60.494 555.184 Q -60.539 556.769 -60.123 558.117 Q -59.706 559.464 -59.071 560.020 Q -58.435 560.575 -57.253 561.074 Q -56.072 561.572 -53.431 561.698 Q -50.791 561.824 -47.734 560.493 "></path>
    <path id="STROKE_608f2297-bb6a-4498-94ef-0d239891dafa" opacity="1.000" fill="none" stroke="#ffffff" stroke-width="3.207" stroke-opacity="1.000" stroke-linecap="round" stroke-linejoin="round" d="M -29.260 526.133 Q -31.027 527.085 -30.792 527.170 Q -30.557 527.255 -30.599 527.436 Q -30.642 527.617 -30.687 527.400 Q -30.731 527.182 -30.903 533.121 Q -31.074 539.060 -28.431 551.954 L -28.403 551.954 Q -28.222 550.790 -29.785 548.298 Q -31.349 545.805 -33.355 544.298 Q -35.362 542.790 -36.585 542.526 Q -37.807 542.262 -39.313 542.211 Q -40.819 542.159 -41.072 544.909 Q -41.326 547.658 -41.289 549.257 Q -41.252 550.857 -40.367 552.431 Q -39.482 554.005 -37.470 554.768 Q -35.458 555.532 -32.909 555.139 Q -30.359 554.746 -26.618 551.483 "></path>
    <path id="STROKE_42abd09b-1e92-46dd-93c8-6c2bbdd6e613" opacity="1.000" fill="none" stroke="#ffffff" stroke-width="3.529" stroke-opacity="1.000" stroke-linecap="round" stroke-linejoin="round" d="M -16.616 542.078 Q -16.624 543.178 -16.716 543.109 Q -18.074 542.979 -17.946 555.988 Q -17.854 555.621 -17.949 555.767 Q -18.045 555.914 -17.935 553.354 Q -17.825 550.794 -16.971 548.250 Q -16.117 545.706 -14.982 543.943 Q -13.847 542.179 -13.104 541.383 Q -12.360 540.587 -11.696 540.297 Q -11.032 540.006 -10.533 539.939 Q -10.034 539.871 -9.857 539.847 Q -9.679 539.822 -9.107 539.798 Q -8.534 539.773 -8.622 539.761 Q -8.709 539.748 -8.279 539.828 Q -7.849 539.908 -8.020 539.935 Q -8.192 539.961 -7.496 540.127 Q -6.801 540.293 -5.229 550.096 "></path>
    <path id="STROKE_10c1abc0-fc3b-400c-8434-48fde71788ed" opacity="1.000" fill="none" stroke="#ffffff" stroke-width="5.214" stroke-opacity="1.000" stroke-linecap="round" stroke-linejoin="round" d="M 3.389 520.037 Q 3.134 520.352 2.915 520.368 Q 2.915 521.138 2.915 521.068 Q 2.824 521.359 3.374 526.670 Q 3.925 531.980 5.630 537.650 "></path>
    <path id="STROKE_e322ee75-d5a2-4515-a681-14957ae293ae" opacity="1.000" fill="none" stroke="#ffffff" stroke-width="3.707" stroke-opacity="1.000" stroke-linecap="round" stroke-linejoin="round" d="M 15.504 535.194 Q 14.985 534.888 15.067 534.901 Q 15.031 534.831 15.067 534.570 Q 16.740 533.972 30.407 534.736 "></path>
    <path id="STROKE_68d3dd01-2e73-4103-9715-ef3a04f969bf" opacity="1.000" fill="none" stroke="#ffffff" stroke-width="5.607" stroke-opacity="1.000" stroke-linecap="round" stroke-linejoin="round" d="M 24.377 516.601 Q 24.418 515.846 22.318 514.018 Q 22.198 515.719 22.739 516.483 Q 23.279 517.247 24.056 522.164 Q 24.833 527.082 24.910 537.126 Q 24.986 547.171 25.862 556.942 Q 26.657 558.159 29.351 554.995 "></path>
    <path id="STROKE_57c2a019-48a2-4a92-9bd4-ab88887a627b" opacity="1.000" fill="none" stroke="#ffffff" stroke-width="3.458" stroke-opacity="1.000" stroke-linecap="round" stroke-linejoin="round" d="M 90.057 516.932 Q 89.621 516.769 90.584 521.830 Q 91.548 526.890 91.968 534.253 Q 92.387 541.616 92.338 546.058 Q 92.289 550.500 92.316 555.720 Q 92.225 554.518 92.196 554.570 Q 92.166 554.622 91.965 553.898 Q 91.763 553.173 91.701 553.121 Q 91.639 553.070 91.336 551.273 Q 91.034 549.476 91.106 547.456 Q 91.178 545.436 91.230 544.580 Q 91.282 543.724 92.643 542.917 Q 94.004 542.109 96.604 542.294 Q 99.205 542.478 101.001 543.693 Q 102.797 544.907 103.650 545.737 Q 104.504 546.567 105.009 548.534 Q 105.513 550.500 105.296 552.389 Q 105.079 554.278 103.992 556.171 Q 102.905 558.065 101.375 558.735 Q 99.844 559.406 98.426 559.321 Q 97.007 559.236 95.218 557.969 Q 93.430 556.702 92.567 554.848 Q 91.703 552.995 93.299 550.286 "></path>
    <path id="STROKE_5a15b8a4-69bf-49db-b35d-9536c79fe573" opacity="1.000" fill="none" stroke="#ffffff" stroke-width="3.080" stroke-opacity="1.000" stroke-linecap="round" stroke-linejoin="round" d="M 123.179 544.662 Q 124.278 544.608 124.235 544.534 Q 125.669 543.762 125.155 544.038 Q 125.321 542.205 122.511 541.730 Q 119.701 541.255 117.889 541.344 Q 116.077 541.434 115.224 541.737 Q 114.371 542.040 113.431 543.070 Q 112.490 544.099 112.184 546.182 Q 111.878 548.265 112.085 549.930 Q 112.291 551.596 113.191 552.790 Q 114.090 553.984 115.877 554.633 Q 117.664 555.283 119.214 555.283 Q 120.765 555.284 121.843 554.941 Q 122.921 554.598 123.622 554.087 Q 124.323 553.576 125.169 552.644 Q 126.016 551.712 126.449 550.490 Q 126.883 549.267 127.166 548.095 Q 127.449 546.924 127.302 545.523 Q 127.155 544.122 126.123 542.633 Q 125.090 541.144 122.614 540.059 Q 120.139 538.974 118.377 538.710 Q 116.614 538.445 116.069 539.596 Q 115.524 540.746 119.462 546.914 "></path>
    <path id="STROKE_d394fe29-1213-480d-9922-1bf81e05e8c1" opacity="1.000" fill="none" stroke="#ffffff" stroke-width="3.543" stroke-opacity="1.000" stroke-linecap="round" stroke-linejoin="round" d="M 136.223 542.409 Q 136.004 542.165 133.035 542.180 Q 132.741 542.334 132.766 544.876 Q 132.790 547.417 133.610 549.470 Q 134.430 551.524 134.986 552.619 Q 135.541 553.715 136.505 554.454 Q 137.469 555.194 138.653 554.721 Q 139.836 554.249 141.548 550.914 Q 143.260 547.578 145.224 543.275 Q 144.768 543.152 143.734 543.636 Q 142.700 544.121 141.934 546.351 Q 141.168 548.580 141.202 550.591 Q 141.236 552.602 145.752 556.255 "></path>
    <path id="STROKE_e21b348c-410c-4f15-acdf-d9654890ba10" opacity="1.000" fill="none" stroke="#ffffff" stroke-width="3.455" stroke-opacity="1.000" stroke-linecap="round" stroke-linejoin="round" d="M 159.853 542.015 Q 159.780 542.042 159.908 541.107 Q 160.037 540.172 159.627 539.094 Q 159.217 538.015 158.118 538.002 Q 157.019 537.989 156.466 538.326 Q 155.913 538.663 155.467 539.614 Q 155.022 540.566 155.135 540.372 Q 155.248 540.178 154.841 541.115 Q 154.435 542.052 154.399 544.910 Q 154.364 547.767 154.562 549.549 Q 154.760 551.331 155.767 552.653 Q 156.775 553.976 157.877 554.173 Q 158.979 554.371 160.455 554.146 Q 161.931 553.920 166.485 540.628 Q 166.291 540.776 164.911 550.140 Q 163.530 559.505 162.277 570.877 Q 162.180 571.236 161.578 570.378 Q 160.977 569.520 160.433 568.553 Q 159.889 567.586 159.261 566.440 Q 158.634 565.294 156.683 560.225 "></path>
    <path id="STROKE_c4357d83-0831-4256-9c21-4c9a69136de7" opacity="1.000" fill="none" stroke="#ffffff" stroke-width="4.047" stroke-opacity="1.000" stroke-linecap="round" stroke-linejoin="round" d="M 178.328 519.910 Q 178.535 519.644 178.064 520.343 Q 177.594 521.042 178.348 527.760 Q 179.103 534.478 179.252 539.174 Q 179.401 543.870 179.542 547.322 Q 179.682 550.775 177.234 560.493 Q 177.024 560.584 176.686 557.454 Q 176.349 554.325 177.577 550.186 Q 178.806 546.048 179.916 543.896 Q 181.026 541.743 181.898 540.478 Q 182.771 539.214 184.195 538.787 Q 185.620 538.360 187.339 539.278 Q 189.058 540.197 190.897 542.146 Q 192.737 544.096 193.094 557.877 Q 193.207 557.866 192.981 558.009 Q 192.755 558.152 191.245 555.720 "></path>
    <path id="STROKE_3ce42693-1777-4c03-b6d8-ba507df5898e" opacity="1.000" fill="none" stroke="#ffffff" stroke-width="2.814" stroke-opacity="1.000" stroke-linecap="round" stroke-linejoin="round" d="M 199.589 535.194 Q 199.910 534.934 199.697 534.984 Q 199.485 535.033 199.877 534.773 Q 200.270 534.512 200.557 534.368 Q 200.844 534.224 201.051 534.240 Q 201.259 534.255 216.205 534.532 "></path>
    <path id="STROKE_1f1fafb6-aeff-41ab-956b-b50673583dec" opacity="1.000" fill="none" stroke="#ffffff" stroke-width="4.179" stroke-opacity="1.000" stroke-linecap="round" stroke-linejoin="round" d="M 206.203 518.917 Q 205.477 519.391 206.702 526.328 Q 207.928 533.265 209.190 545.731 Q 209.154 545.731 208.589 545.463 "></path>
    <path id="STROKE_7fd82b8b-486b-46ef-a0a1-fde4e8df2c92" opacity="1.000" fill="none" stroke="#ffffff" stroke-width="5.377" stroke-opacity="1.000" stroke-linecap="round" stroke-linejoin="round" d="M -327.905 731.744 Q -327.471 731.728 -328.862 731.776 Q -329.227 731.556 -328.089 738.703 Q -326.951 745.850 -326.448 754.180 Q -326.678 753.809 -325.722 749.249 Q -324.766 744.690 -323.531 741.438 Q -322.295 738.185 -321.042 735.740 Q -319.789 733.294 -316.118 732.476 Q -314.931 732.637 -314.132 749.026 Q -314.135 748.754 -313.351 745.005 Q -312.568 741.257 -311.343 738.282 Q -310.119 735.307 -308.672 733.555 Q -307.224 731.803 -305.938 731.187 Q -304.651 730.572 -303.389 730.384 Q -302.127 730.196 -301.493 730.879 Q -300.859 731.562 -300.738 735.112 Q -300.618 738.661 -300.459 746.901 Q -300.222 746.964 -299.502 746.901 "></path>
    <path id="STROKE_57d08712-6d57-4c33-92c6-4d2c0b0efb79" opacity="1.000" fill="none" stroke="#ffffff" stroke-width="4.598" stroke-opacity="1.000" stroke-linecap="round" stroke-linejoin="round" d="M -282.613 730.421 Q -282.613 731.298 -282.613 731.114 Q -282.613 732.590 -282.562 732.853 Q -282.510 733.115 -282.665 733.619 Q -282.819 734.122 -282.465 737.182 Q -282.112 740.243 -280.591 743.261 L -280.518 743.261 Q -280.167 743.324 -280.849 740.261 Q -281.531 737.198 -282.813 734.944 Q -284.095 732.691 -285.309 731.739 Q -286.524 730.787 -287.575 730.764 Q -288.626 730.740 -289.329 731.049 Q -290.033 731.358 -290.614 732.385 Q -291.195 733.411 -291.390 735.455 Q -291.584 737.499 -291.295 739.400 Q -291.007 741.301 -289.581 742.230 Q -288.155 743.160 -286.366 743.546 Q -284.577 743.933 -281.083 742.803 "></path>
    <path id="STROKE_3dd0c263-63cc-481a-a7c1-b332bfb874a2" opacity="1.000" fill="none" stroke="#ffffff" stroke-width="4.041" stroke-opacity="1.000" stroke-linecap="round" stroke-linejoin="round" d="M -267.309 709.232 Q -267.410 709.689 -267.427 709.829 Q -267.445 709.969 -267.393 710.059 Q -267.341 710.148 -267.491 710.414 Q -267.640 710.681 -267.100 717.945 Q -266.561 725.208 -264.066 743.465 Q -264.000 742.884 -264.279 738.482 Q -264.558 734.079 -264.578 731.394 Q -264.597 728.708 -264.034 727.185 Q -263.470 725.662 -262.508 724.303 Q -261.545 722.945 -259.811 721.793 Q -258.078 720.642 -253.863 719.171 "></path>
    <path id="STROKE_4bef2876-d553-4ae9-9855-4e9b3f84b82d" opacity="1.000" fill="none" stroke="#ffffff" stroke-width="6.321" stroke-opacity="1.000" stroke-linecap="round" stroke-linejoin="round" d="M -259.694 722.734 Q -259.486 722.837 -260.879 723.255 Q -262.272 723.673 -262.294 724.423 Q -262.317 725.174 -261.893 725.975 Q -261.469 726.776 -260.903 727.605 Q -260.337 728.434 -258.805 730.586 Q -257.274 732.737 -252.934 734.989 "></path>
    <path id="STROKE_6cdaac36-748f-46bb-990c-f85132f133a4" opacity="1.000" fill="none" stroke="#ffffff" stroke-width="4.803" stroke-opacity="1.000" stroke-linecap="round" stroke-linejoin="round" d="M -244.790 729.823 Q -244.741 729.533 -244.699 730.783 Q -243.554 730.837 -243.643 730.815 Q -242.932 730.991 -240.025 729.989 Q -237.117 728.987 -235.411 728.318 Q -233.705 727.649 -232.701 726.354 Q -231.697 725.060 -231.699 723.964 Q -231.701 722.869 -232.088 721.966 Q -232.475 721.064 -234.282 720.780 Q -236.088 720.497 -237.995 720.878 Q -239.902 721.259 -241.424 722.302 Q -242.946 723.345 -244.226 724.849 Q -245.506 726.353 -246.096 729.148 Q -246.686 731.944 -246.601 733.348 Q -246.517 734.751 -246.310 736.213 Q -246.102 737.675 -243.939 739.828 Q -241.776 741.982 -238.963 743.590 Q -236.150 745.198 -228.976 745.183 "></path>
    <path id="STROKE_843e2d75-f43c-41d4-a30a-fe1c5d5a86de" opacity="1.000" fill="none" stroke="#ffffff" stroke-width="3.686" stroke-opacity="1.000" stroke-linecap="round" stroke-linejoin="round" d="M -149.378 836.070 Q -150.086 836.229 -150.079 836.210 Q -150.167 836.102 -150.773 836.506 Q -151.378 836.911 -151.241 836.936 Q -151.103 836.961 -151.408 837.024 Q -151.713 837.087 -150.916 842.364 Q -150.118 847.641 -149.491 852.707 Q -148.863 857.774 -148.770 861.034 Q -148.678 864.295 -148.221 868.509 L -148.193 868.509 Q -148.022 868.488 -148.414 865.558 Q -148.805 862.628 -149.733 860.154 Q -150.660 857.679 -151.492 856.326 Q -152.323 854.972 -153.668 854.427 Q -155.014 853.881 -156.248 853.976 Q -157.482 854.071 -158.213 854.789 Q -158.945 855.507 -159.501 856.336 Q -160.057 857.165 -160.564 858.708 Q -161.070 860.252 -161.033 861.876 Q -160.996 863.501 -160.919 864.556 Q -160.842 865.610 -159.347 866.521 Q -157.853 867.432 -155.076 867.971 Q -152.299 868.510 -143.420 864.602 "></path>
    <path id="STROKE_8942aeb8-5729-4f2e-b310-2da0d67b8c19" opacity="1.000" fill="none" stroke="#ffffff" stroke-width="3.407" stroke-opacity="1.000" stroke-linecap="round" stroke-linejoin="round" d="M -127.205 852.359 Q -126.890 852.221 -128.614 851.748 Q -130.338 851.275 -132.228 851.227 Q -134.118 851.178 -134.915 853.261 Q -135.711 855.344 -135.822 857.598 Q -135.932 859.853 -135.417 861.363 Q -134.902 862.872 -133.699 863.955 Q -132.496 865.038 -130.761 865.451 Q -129.025 865.864 -127.889 865.851 Q -126.754 865.838 -125.069 864.762 Q -123.384 863.686 -122.851 860.903 Q -122.318 858.121 -122.279 856.326 Q -122.241 854.530 -122.927 853.398 Q -123.613 852.267 -125.934 851.900 Q -128.256 851.532 -130.738 851.962 Q -133.220 852.392 -134.409 853.043 Q -135.599 853.693 -136.327 854.290 Q -137.055 854.887 -135.932 857.195 "></path>
    <path id="STROKE_b4070c7d-f88f-4489-bed4-0c3d3af16f32" opacity="1.000" fill="none" stroke="#ffffff" stroke-width="3.526" stroke-opacity="1.000" stroke-linecap="round" stroke-linejoin="round" d="M 174.191 641.495 Q 173.236 641.494 173.298 641.464 Q 172.956 641.467 171.884 641.151 Q 170.813 640.835 169.117 641.520 Q 167.420 642.205 166.869 642.925 Q 166.319 643.645 165.777 644.288 Q 165.235 644.931 164.241 646.930 Q 163.246 648.929 162.430 652.143 Q 161.615 655.356 161.650 657.190 Q 161.686 659.024 161.535 659.950 Q 161.384 660.875 162.575 661.802 Q 163.766 662.729 164.445 663.078 Q 165.124 663.426 166.737 663.929 Q 168.349 664.432 170.424 664.620 Q 172.499 664.808 175.127 664.540 Q 177.755 664.272 182.135 661.691 "></path>
    <path id="STROKE_228fe1ea-3e18-4fa7-82b9-3d9fd3f94765" opacity="1.000" fill="none" stroke="#ffffff" stroke-width="2.905" stroke-opacity="1.000" stroke-linecap="round" stroke-linejoin="round" d="M 201.009 646.204 Q 201.158 646.336 198.371 645.931 Q 195.583 645.526 193.821 645.512 Q 192.059 645.497 191.306 645.835 Q 190.552 646.174 190.190 647.037 Q 189.827 647.900 189.557 650.358 Q 189.288 652.816 190.070 655.509 Q 190.851 658.202 192.618 660.279 Q 194.384 662.356 196.264 662.966 Q 198.144 663.575 199.729 663.642 Q 201.313 663.709 202.602 662.927 Q 203.891 662.144 204.673 659.817 Q 205.455 657.489 205.140 654.620 Q 204.825 651.750 203.713 649.123 Q 202.601 646.496 198.759 645.771 Q 198.340 646.116 198.422 651.294 "></path>
    <path id="STROKE_ce571e55-0d65-4d14-97d9-3d6055bacc43" opacity="1.000" fill="none" stroke="#ffffff" stroke-width="3.792" stroke-opacity="1.000" stroke-linecap="round" stroke-linejoin="round" d="M 210.811 648.851 Q 210.848 648.569 210.738 647.197 Q 210.711 647.197 210.647 647.197 Q 210.531 646.370 209.682 659.566 Q 209.447 659.912 210.122 656.835 Q 210.796 653.758 211.963 651.547 Q 213.130 649.335 216.446 647.399 Q 219.762 645.462 225.642 645.377 Q 226.014 644.987 226.798 659.076 L 227.026 659.172 "></path>
    <path id="STROKE_933ab03f-8723-4d80-8f3a-c581a294feec" opacity="1.000" fill="none" stroke="#ffffff" stroke-width="4.287" stroke-opacity="1.000" stroke-linecap="round" stroke-linejoin="round" d="M 254.919 624.227 Q 254.629 624.375 254.610 650.442 L 254.646 650.442 Q 254.623 649.072 254.582 649.245 Q 254.438 648.591 253.659 647.362 Q 252.880 646.132 251.808 644.828 Q 250.736 643.523 248.802 643.249 Q 246.868 642.974 245.540 643.139 Q 244.213 643.304 243.319 643.853 Q 242.426 644.402 241.699 645.779 Q 240.973 647.156 241.022 648.257 Q 241.071 649.358 242.127 649.872 Q 243.184 650.387 244.106 650.537 Q 245.029 650.688 247.905 650.584 Q 250.782 650.480 253.717 649.118 "></path>
    <path id="STROKE_3f8cdd46-61e5-4669-9d7a-feaea39f7c0e" opacity="1.000" fill="none" stroke="#ffffff" stroke-width="4.657" stroke-opacity="1.000" stroke-linecap="round" stroke-linejoin="round" d="M 265.906 635.871 Q 265.274 635.861 265.404 635.902 Q 265.192 635.667 265.240 638.971 Q 265.288 642.276 266.561 645.733 "></path>
    <path id="STROKE_ba358821-8169-415b-b46d-c62702c5a026" opacity="1.000" fill="none" stroke="#ffffff" stroke-width="2.035" stroke-opacity="1.000" stroke-linecap="round" stroke-linejoin="round" d="M 267.363 623.628 Q 267.396 623.618 266.835 623.094 Q 266.705 623.291 267.618 626.606 "></path>
    <path id="STROKE_dc920a72-d10e-4eb3-b9c8-e3a0bea9b6fa" opacity="1.000" fill="none" stroke="#ffffff" stroke-width="4.895" stroke-opacity="1.000" stroke-linecap="round" stroke-linejoin="round" d="M 278.094 635.082 Q 278.094 635.050 278.121 634.719 Q 279.159 634.661 279.275 634.648 Q 279.391 634.635 279.346 634.632 Q 279.301 634.630 279.556 634.647 Q 279.811 634.665 291.868 634.420 "></path>
    <path id="STROKE_236398c9-8b65-4d39-915d-b8647142df3b" opacity="1.000" fill="none" stroke="#ffffff" stroke-width="5.267" stroke-opacity="1.000" stroke-linecap="round" stroke-linejoin="round" d="M 284.307 617.469 Q 284.463 617.518 284.327 617.424 Q 284.190 617.330 283.545 617.737 Q 282.900 618.144 282.901 618.395 Q 282.902 618.645 282.884 618.875 Q 282.866 619.106 282.941 619.856 Q 283.017 620.605 284.800 627.327 Q 286.584 634.049 287.399 638.581 Q 288.214 643.113 290.738 646.662 "></path>
    <path id="STROKE_b61a60fa-5922-4bd0-a5ed-83373c92d7d0" opacity="1.000" fill="none" stroke="#ffffff" stroke-width="2.604" stroke-opacity="1.000" stroke-linecap="round" stroke-linejoin="round" d="M 299.811 638.518 Q 299.812 639.592 299.798 639.658 Q 299.783 639.725 299.718 640.094 Q 299.654 640.464 299.662 640.491 Q 299.669 640.519 299.337 641.624 Q 299.006 642.728 300.066 648.380 "></path>
    <path id="STROKE_32bb40d9-e908-4000-8cab-856f52b83b81" opacity="1.000" fill="none" stroke="#ffffff" stroke-width="4.365" stroke-opacity="1.000" stroke-linecap="round" stroke-linejoin="round" d="M 303.309 620.180 Q 302.772 619.851 300.467 619.620 Q 299.011 619.036 301.724 629.253 "></path>
    <path id="STROKE_5045462e-e453-41e4-94b1-0ebf136fc3b1" opacity="1.000" fill="none" stroke="#ffffff" stroke-width="3.905" stroke-opacity="1.000" stroke-linecap="round" stroke-linejoin="round" d="M 325.700 640.770 Q 325.569 641.305 325.711 639.729 Q 325.852 638.152 324.868 637.165 Q 323.883 636.177 321.608 635.629 Q 319.333 635.081 317.643 634.878 Q 315.953 634.675 314.912 635.435 Q 313.870 636.195 313.559 638.749 Q 313.247 641.302 313.375 643.395 Q 313.502 645.488 314.212 646.711 Q 314.921 647.934 315.759 648.933 Q 316.596 649.931 318.736 650.600 Q 320.875 651.269 322.519 651.173 Q 324.163 651.076 325.421 650.022 Q 326.678 648.969 326.971 646.318 Q 327.264 643.666 327.317 641.954 Q 327.371 640.242 326.814 638.620 Q 326.257 636.998 324.711 635.708 Q 323.166 634.417 321.540 633.809 Q 319.915 633.200 317.657 633.586 Q 316.960 634.845 318.158 639.650 "></path>
    <path id="STROKE_28268a0c-5fd7-4465-8f76-26096b27f8b9" opacity="1.000" fill="none" stroke="#ffffff" stroke-width="3.542" stroke-opacity="1.000" stroke-linecap="round" stroke-linejoin="round" d="M 340.531 636.596 Q 342.002 636.245 340.469 639.082 Q 338.937 641.920 336.231 645.542 Q 335.730 646.044 336.790 643.715 Q 337.850 641.385 339.436 639.676 Q 341.022 637.967 342.658 637.339 Q 344.294 636.712 345.294 636.613 Q 346.294 636.515 348.319 636.685 Q 350.344 636.855 351.061 649.576 "></path>
    <path id="STROKE_958f617e-7c30-40e1-befb-0862ddcd2e12" opacity="1.000" fill="none" stroke="#ffffff" stroke-width="3.159" stroke-opacity="1.000" stroke-linecap="round" stroke-linejoin="round" d="M 361.318 637.665 Q 361.355 637.665 361.391 637.665 Q 360.784 638.260 362.147 647.858 Q 362.228 648.722 362.418 645.757 Q 362.608 642.792 362.569 641.067 Q 362.530 639.341 362.097 638.193 Q 361.663 637.045 360.646 636.609 Q 359.629 636.173 358.842 636.815 Q 358.056 637.456 357.228 640.298 Q 356.401 643.139 356.414 645.067 Q 356.426 646.994 357.174 648.138 Q 357.922 649.282 359.773 649.638 Q 361.624 649.995 363.632 649.449 "></path>
    <path id="STROKE_7ac43091-fdac-45e5-9ff1-05f0e149f616" opacity="1.000" fill="none" stroke="#ffffff" stroke-width="4.695" stroke-opacity="1.000" stroke-linecap="round" stroke-linejoin="round" d="M 375.894 618.933 Q 374.878 618.804 375.156 618.856 Q 374.177 618.949 374.400 619.098 Q 374.651 618.255 373.602 620.943 Q 372.553 623.631 372.611 629.161 Q 372.669 634.692 372.702 637.596 Q 372.735 640.500 373.473 643.288 Q 374.211 646.075 374.817 648.020 Q 375.423 649.964 379.465 652.287 "></path>
    <path id="STROKE_a16bee5a-16fa-427e-92c6-099bf1a6efbc" opacity="1.000" fill="none" stroke="#ffffff" stroke-width="4.794" stroke-opacity="1.000" stroke-linecap="round" stroke-linejoin="round" d="M 396.481 641.037 Q 396.496 640.713 395.803 638.796 Q 395.110 636.879 393.460 635.613 Q 391.809 634.348 390.101 634.218 Q 388.393 634.088 387.277 633.967 Q 386.162 633.846 385.123 635.180 Q 384.085 636.513 383.976 639.243 Q 383.867 641.972 384.132 643.759 Q 384.397 645.545 387.238 646.403 Q 390.080 647.261 391.784 647.599 Q 393.489 647.937 393.970 648.331 Q 394.451 648.724 394.723 649.068 Q 394.995 649.412 395.037 649.712 Q 395.080 650.013 395.175 650.630 Q 395.270 651.248 394.706 652.593 Q 394.143 653.937 392.039 655.546 Q 389.935 657.154 386.554 658.210 Q 383.173 659.266 375.620 656.461 "></path>
    <path id="STROKE_597cda05-0da2-43b3-bbd7-83b85e02a685" opacity="1.000" fill="none" stroke="#ffffff" stroke-width="4.049" stroke-opacity="1.000" stroke-linecap="round" stroke-linejoin="round" d="M 337.963 939.879 Q 338.080 940.276 338.007 939.164 Q 337.934 938.053 336.834 936.825 Q 336.957 937.576 339.294 943.441 Q 341.630 949.305 342.699 952.521 Q 343.768 955.736 344.247 956.947 Q 344.726 958.157 345.771 959.549 Q 346.816 960.941 347.812 957.921 Q 348.808 954.901 350.001 950.914 Q 351.193 946.927 352.009 945.060 Q 352.824 943.194 353.229 942.481 Q 353.634 941.768 353.879 941.297 Q 354.124 940.827 354.657 940.913 Q 355.191 940.999 355.620 941.714 Q 356.049 942.428 356.196 942.882 Q 356.343 943.336 356.608 943.997 Q 356.873 944.658 357.817 949.178 Q 358.762 953.698 360.946 957.950 Q 361.929 958.318 363.564 952.870 Q 365.199 947.421 368.352 941.864 "></path>
    <path id="STROKE_40f83fec-856f-456a-8903-84c072ef0ff9" opacity="1.000" fill="none" stroke="#ffffff" stroke-width="2.765" stroke-opacity="1.000" stroke-linecap="round" stroke-linejoin="round" d="M 382.855 938.556 Q 382.323 938.362 381.456 940.181 Q 380.589 941.999 384.513 949.869 "></path>
    <path id="STROKE_37aa6213-981d-434f-b2d9-13be440543b8" opacity="1.000" fill="none" stroke="#ffffff" stroke-width="2.856" stroke-opacity="1.000" stroke-linecap="round" stroke-linejoin="round" d="M 384.986 915.585 L 384.986 915.547 Q 385.298 915.360 384.812 915.346 Q 384.325 915.331 383.833 915.448 Q 383.341 915.566 383.169 916.093 Q 382.998 916.621 382.894 917.081 Q 382.791 917.540 382.807 918.013 Q 382.824 918.486 382.510 919.831 Q 382.197 921.176 387.100 929.215 "></path>
    <path id="STROKE_d90245e9-23c8-4baf-be34-17a83e738aae" opacity="1.000" fill="none" stroke="#ffffff" stroke-width="4.081" stroke-opacity="1.000" stroke-linecap="round" stroke-linejoin="round" d="M 405.300 930.475 Q 404.675 930.200 402.191 930.189 Q 399.708 930.178 398.237 930.576 Q 396.767 930.974 395.906 931.608 Q 395.045 932.242 394.545 934.275 Q 394.046 936.308 394.723 938.342 Q 395.401 940.377 396.226 942.001 Q 397.051 943.625 400.087 944.746 Q 403.122 945.868 405.208 946.148 Q 407.294 946.428 408.279 946.521 Q 409.264 946.613 411.622 946.891 Q 413.981 947.169 415.274 947.374 Q 416.567 947.579 417.038 948.243 Q 417.509 948.907 417.640 949.699 Q 417.771 950.491 417.583 950.875 Q 417.396 951.260 417.029 951.881 Q 416.662 952.503 416.241 953.011 Q 415.819 953.519 414.414 954.860 Q 413.009 956.200 411.439 956.856 Q 409.868 957.511 408.079 957.762 Q 406.289 958.014 403.260 953.903 "></path>
    <path id="STROKE_88c3f9c3-6450-4d33-85e0-dfc331404344" opacity="1.000" fill="none" stroke="#ffffff" stroke-width="4.574" stroke-opacity="1.000" stroke-linecap="round" stroke-linejoin="round" d="M 425.432 911.475 Q 425.469 911.475 425.505 911.475 Q 425.435 911.287 425.949 919.106 Q 426.463 926.925 426.345 934.189 Q 426.227 941.453 425.578 949.742 Q 425.350 950.306 425.800 946.640 Q 426.249 942.974 427.711 940.144 Q 429.173 937.315 430.331 935.887 Q 431.489 934.459 432.590 933.995 Q 433.691 933.531 435.667 934.113 Q 437.643 934.695 440.991 949.869 "></path>
    <path id="STROKE_cb729204-ddbd-490f-8285-d8d69dab98e5" opacity="1.000" fill="none" stroke="#ffffff" stroke-width="5.065" stroke-opacity="1.000" stroke-linecap="round" stroke-linejoin="round" d="M 448.607 940.210 Q 448.482 940.106 449.884 940.261 Q 451.286 940.417 453.041 940.412 Q 454.797 940.407 456.482 940.204 Q 458.168 940.001 460.070 938.572 Q 461.971 937.142 462.584 935.201 Q 463.198 933.261 463.198 931.790 Q 463.197 930.319 462.584 929.798 Q 461.970 929.277 459.898 928.959 Q 457.826 928.641 456.248 928.819 Q 454.670 928.996 453.509 929.653 Q 452.347 930.310 450.944 931.558 Q 449.541 932.807 449.167 935.508 Q 448.793 938.209 448.758 940.083 Q 448.723 941.957 450.597 944.074 Q 452.471 946.191 456.201 948.484 Q 459.930 950.778 468.083 951.332 "></path>
    <path id="STROKE_5ae7d479-1acd-4281-8cd6-e85864d56ab8" opacity="1.000" fill="none" stroke="#ffffff" stroke-width="5.353" stroke-opacity="1.000" stroke-linecap="round" stroke-linejoin="round" d="M 483.515 936.761 Q 483.822 936.241 482.205 935.105 Q 480.588 933.969 479.137 933.420 Q 477.686 932.870 476.463 932.824 Q 475.241 932.778 473.972 932.697 Q 472.702 932.617 471.137 933.005 Q 469.571 933.393 468.715 935.171 Q 467.858 936.949 467.929 939.337 Q 467.999 941.724 468.000 943.006 Q 468.000 944.287 468.904 945.482 Q 469.809 946.677 470.554 947.101 Q 471.299 947.525 474.019 947.746 Q 476.738 947.967 478.509 948.400 Q 480.281 948.833 481.542 949.205 Q 482.803 949.577 483.090 950.981 Q 483.377 952.386 483.005 953.915 Q 482.633 955.445 480.498 957.277 Q 478.362 959.110 470.470 958.675 "></path>
    <path id="STROKE_624294ac-48fe-475d-b23b-1b097b21dfc3" opacity="1.000" fill="none" stroke="#ffffff" stroke-width="7.899" stroke-opacity="1.000" stroke-linecap="round" stroke-linejoin="round" d="M -409.144 921.003 Q -410.386 921.003 -410.009 921.003 Q -410.110 921.003 -410.346 921.003 Q -409.612 920.618 -406.223 923.437 Q -402.834 926.256 -400.491 928.731 Q -398.148 931.207 -395.817 934.447 Q -393.487 937.686 -387.864 943.184 Q -387.844 943.321 -387.700 941.720 "></path>
    <path id="STROKE_42d9fab3-8131-4c0a-9468-6f945b6d8ef2" opacity="1.000" fill="none" stroke="#ffffff" stroke-width="6.737" stroke-opacity="1.000" stroke-linecap="round" stroke-linejoin="round" d="M -386.844 915.251 Q -386.776 915.078 -386.864 915.013 Q -386.951 914.948 -386.787 915.106 Q -386.622 915.265 -387.700 913.991 Q -388.023 912.990 -387.609 921.704 Q -387.195 930.419 -387.387 937.018 Q -387.579 943.616 -388.133 947.467 Q -388.688 951.318 -389.559 956.024 Q -389.429 956.563 -389.790 955.420 Q -390.152 954.276 -386.844 947.612 "></path>
    <path id="STROKE_bb9f5411-575c-49e2-8a1f-b038e5961b0c" opacity="1.000" fill="none" stroke="#ffffff" stroke-width="4.759" stroke-opacity="1.000" stroke-linecap="round" stroke-linejoin="round" d="M -362.740 936.490 Q -362.608 936.041 -363.494 935.473 Q -364.380 934.905 -365.015 934.684 Q -365.649 934.462 -366.132 934.403 Q -366.614 934.343 -367.623 934.336 Q -368.632 934.329 -369.523 934.435 Q -370.414 934.540 -371.264 935.646 Q -372.114 936.752 -372.340 938.941 Q -372.566 941.130 -372.380 942.780 Q -372.194 944.430 -370.650 946.446 Q -369.106 948.462 -367.297 949.660 Q -365.488 950.859 -364.112 951.026 Q -362.735 951.193 -360.717 950.925 Q -358.699 950.658 -356.617 948.280 Q -354.534 945.902 -353.740 942.531 Q -352.946 939.160 -352.780 937.643 Q -352.614 936.125 -352.944 934.892 Q -353.274 933.659 -354.823 932.688 Q -356.372 931.716 -358.037 931.240 Q -359.702 930.764 -361.642 930.759 Q -363.582 930.755 -363.570 931.733 Q -363.557 932.712 -363.655 935.141 Q -363.752 937.570 -362.868 940.600 "></path>
    <path id="STROKE_46334a8b-6447-4ae2-bdcf-5d296f519bcd" opacity="1.000" fill="none" stroke="#ffffff" stroke-width="4.903" stroke-opacity="1.000" stroke-linecap="round" stroke-linejoin="round" d="M -340.149 934.047 Q -341.983 934.508 -342.341 937.032 Q -342.698 939.556 -342.652 941.130 Q -342.606 942.704 -341.996 943.954 Q -341.387 945.205 -340.255 945.751 Q -339.123 946.297 -337.453 946.251 Q -335.784 946.205 -332.886 943.690 Q -329.988 941.174 -323.260 927.257 Q -324.065 927.244 -323.925 927.391 Q -324.280 927.610 -324.809 930.573 Q -325.338 933.537 -325.722 938.150 Q -326.107 942.764 -324.863 949.343 "></path>
    <path id="STROKE_267c1d77-5bc5-41fa-b49f-95db0924943c" opacity="1.000" fill="none" stroke="#ffffff" stroke-width="6.136" stroke-opacity="1.000" stroke-linecap="round" stroke-linejoin="round" d="M -336.833 1048.643 Q -336.908 1047.476 -337.042 1047.478 Q -337.051 1047.580 -338.491 1044.736 Q -338.093 1044.423 -336.027 1051.454 Q -333.961 1058.485 -330.948 1065.784 Q -330.058 1065.388 -329.292 1062.292 Q -328.527 1059.195 -327.638 1056.676 Q -326.748 1054.157 -326.139 1052.733 Q -325.529 1051.309 -324.373 1050.776 Q -323.217 1050.242 -319.716 1065.352 Q -318.501 1065.468 -317.191 1061.510 Q -315.882 1057.552 -313.770 1053.650 Q -311.658 1049.749 -306.771 1045.589 "></path>
    <path id="STROKE_2548ccd6-d9f1-468f-a457-878128d20599" opacity="1.000" fill="none" stroke="#ffffff" stroke-width="6.118" stroke-opacity="1.000" stroke-linecap="round" stroke-linejoin="round" d="M -301.615 1053.135 Q -301.674 1053.013 -302.018 1053.708 Q -302.363 1054.403 -302.359 1055.004 Q -302.355 1055.605 -301.901 1055.886 Q -301.447 1056.167 -301.500 1056.118 Q -301.553 1056.069 -300.698 1056.355 Q -299.843 1056.640 -297.211 1056.649 Q -294.580 1056.658 -292.782 1055.778 Q -290.984 1054.898 -289.675 1053.769 Q -288.366 1052.639 -287.870 1051.278 Q -287.373 1049.917 -287.248 1048.806 Q -287.122 1047.695 -287.902 1046.822 Q -288.682 1045.949 -289.995 1045.550 Q -291.309 1045.151 -293.001 1045.295 Q -294.693 1045.439 -296.024 1045.683 Q -297.355 1045.927 -298.087 1046.363 Q -298.819 1046.799 -300.535 1048.480 Q -302.250 1050.161 -302.757 1053.367 Q -303.263 1056.572 -303.205 1058.764 Q -303.147 1060.957 -301.826 1063.108 Q -300.506 1065.259 -298.549 1066.951 Q -296.593 1068.644 -294.262 1069.448 Q -291.932 1070.252 -288.640 1070.559 Q -285.349 1070.867 -279.625 1068.304 "></path>
    <path id="STROKE_c2a51dd5-2e1d-45c4-940c-bbd2ca04bdd9" opacity="1.000" fill="none" stroke="#ffffff" stroke-width="5.428" stroke-opacity="1.000" stroke-linecap="round" stroke-linejoin="round" d="M 323.060 767.835 Q 322.953 767.998 320.472 766.245 Q 320.476 766.834 321.580 770.734 Q 322.683 774.634 323.022 779.989 Q 323.361 785.344 321.473 792.432 Q 319.585 799.519 318.225 804.214 Q 316.865 808.909 316.774 812.923 Q 316.801 812.229 317.630 809.741 "></path>
    <path id="STROKE_6b26b4a0-d458-4434-a177-c50da54423a2" opacity="1.000" fill="none" stroke="#ffffff" stroke-width="5.817" stroke-opacity="1.000" stroke-linecap="round" stroke-linejoin="round" d="M 341.260 773.524 Q 341.858 773.035 341.798 773.097 Q 341.898 773.034 342.317 772.671 Q 342.352 772.535 341.642 781.357 Q 340.932 790.179 339.581 797.462 Q 338.230 804.745 335.968 810.594 Q 335.296 810.415 332.989 804.117 "></path>
    <path id="STROKE_dd320fbf-9b10-4ace-8f08-68622170466d" opacity="1.000" fill="none" stroke="#ffffff" stroke-width="4.899" stroke-opacity="1.000" stroke-linecap="round" stroke-linejoin="round" d="M 326.230 790.411 Q 326.202 790.411 325.975 790.411 Q 325.480 790.443 342.189 798.416 "></path>
    <path id="STROKE_41f883fb-dfe1-4f4b-a072-7733cd03625a" opacity="1.000" fill="none" stroke="#ffffff" stroke-width="4.574" stroke-opacity="1.000" stroke-linecap="round" stroke-linejoin="round" d="M 356.637 798.746 Q 356.564 798.746 356.163 798.746 Q 355.721 798.535 361.979 798.685 Q 368.237 798.835 374.938 797.461 Q 375.777 796.791 373.268 794.530 Q 370.759 792.269 367.947 791.339 Q 365.136 790.409 363.375 790.230 Q 361.615 790.050 360.211 790.437 Q 358.808 790.823 358.593 793.996 Q 358.379 797.169 358.424 799.063 Q 358.470 800.957 359.289 803.170 Q 360.108 805.383 362.877 807.848 Q 365.646 810.312 368.435 811.867 Q 371.224 813.422 376.095 814.437 "></path>
    <path id="STROKE_677cf6b0-7963-41aa-a702-2df684737cd1" opacity="1.000" fill="none" stroke="#ffffff" stroke-width="5.218" stroke-opacity="1.000" stroke-linecap="round" stroke-linejoin="round" d="M -53.494 1098.025 Q -53.507 1096.388 -53.538 1096.788 Q -53.182 1097.252 -54.858 1094.830 Q -54.474 1095.527 -51.145 1105.310 Q -47.817 1115.092 -43.346 1124.628 Q -42.345 1124.509 -34.957 1098.385 Q -33.697 1098.250 -31.625 1105.151 Q -29.553 1112.052 -28.722 1116.508 Q -27.891 1120.964 -25.996 1123.507 Q -25.117 1120.923 -24.890 1117.499 Q -24.664 1114.075 -23.915 1109.325 Q -23.167 1104.575 -22.475 1102.240 Q -21.784 1099.904 -20.979 1097.573 Q -20.174 1095.242 -14.242 1095.588 Q -8.310 1095.933 -3.669 1096.461 Q 0.972 1096.990 5.879 1098.938 L 5.879 1098.977 Q 5.325 1098.703 3.180 1098.251 Q 1.035 1097.799 -0.323 1097.653 Q -1.682 1097.506 -2.468 1097.612 Q -3.254 1097.719 -4.220 1099.070 Q -5.186 1100.421 -5.197 1103.225 Q -5.207 1106.029 -4.772 1107.935 Q -4.336 1109.841 -2.860 1111.797 Q -1.384 1113.753 0.737 1114.928 Q 2.858 1116.104 5.127 1116.191 Q 7.397 1116.279 9.296 1115.226 Q 11.194 1114.173 11.829 1111.461 Q 12.463 1108.749 12.403 1107.203 Q 12.343 1105.656 11.940 1104.511 Q 11.538 1103.367 10.018 1101.303 Q 8.498 1099.239 7.019 1098.443 Q 5.540 1097.648 4.535 1097.425 Q 3.530 1097.201 2.799 1097.493 Q 2.069 1097.786 1.980 1099.277 Q 1.890 1100.768 2.192 1101.784 Q 2.494 1102.800 3.161 1103.613 Q 3.827 1104.427 5.241 1105.459 "></path>
    <path id="STROKE_4bb8fbcf-9b73-4a33-896c-a249be905028" opacity="1.000" fill="none" stroke="#ffffff" stroke-width="3.755" stroke-opacity="1.000" stroke-linecap="round" stroke-linejoin="round" d="M 24.746 1097.303 Q 25.846 1097.366 21.393 1097.065 Q 20.699 1098.867 20.916 1102.581 Q 21.133 1106.294 22.095 1108.824 Q 23.057 1111.354 24.178 1112.584 Q 25.299 1113.813 26.299 1114.036 Q 27.299 1114.260 28.150 1114.408 Q 29.000 1114.557 30.716 1112.475 Q 32.431 1110.394 33.821 1106.758 Q 35.211 1103.123 35.770 1101.198 Q 36.329 1099.274 36.258 1095.667 Q 35.106 1095.585 35.334 1095.790 Q 34.865 1096.138 34.276 1101.977 Q 33.687 1107.815 33.762 1111.645 Q 33.837 1115.474 34.609 1117.556 Q 35.381 1119.637 36.035 1120.477 Q 36.690 1121.317 37.575 1121.458 Q 38.459 1121.600 39.401 1121.331 Q 40.342 1121.062 42.096 1117.516 "></path>
    <path id="STROKE_c0ae2743-cfe3-4082-805e-d30c02c2bdc2" opacity="1.000" fill="none" stroke="#ffffff" stroke-width="4.643" stroke-opacity="1.000" stroke-linecap="round" stroke-linejoin="round" d="M 50.562 1083.801 Q 50.562 1083.763 50.562 1083.609 Q 49.663 1083.337 49.848 1083.402 Q 50.024 1083.460 50.010 1083.281 Q 49.997 1083.102 49.102 1083.960 Q 48.208 1084.818 48.174 1089.152 Q 48.140 1093.486 48.113 1095.817 Q 48.087 1098.148 48.072 1100.676 Q 48.058 1103.203 48.076 1106.335 Q 48.095 1109.467 48.650 1112.071 Q 49.205 1114.675 51.992 1116.395 "></path>
    <path id="STROKE_a650ce69-f9c9-4804-92d5-d32a183de7c4" opacity="1.000" fill="none" stroke="#ffffff" stroke-width="3.722" stroke-opacity="1.000" stroke-linecap="round" stroke-linejoin="round" d="M 80.777 1069.747 Q 80.821 1069.747 80.931 1069.785 Q 81.143 1069.701 80.526 1078.686 Q 79.910 1087.670 79.993 1093.828 Q 80.076 1099.986 80.571 1104.362 Q 81.066 1108.738 84.097 1111.165 Q 84.313 1110.869 84.223 1108.275 Q 84.134 1105.680 82.729 1103.313 Q 81.325 1100.945 79.677 1099.466 Q 78.029 1097.986 75.651 1097.768 Q 73.273 1097.549 71.859 1097.690 Q 70.444 1097.832 68.970 1099.483 Q 67.497 1101.134 66.935 1103.482 Q 66.373 1105.830 66.713 1107.556 Q 67.053 1109.282 68.724 1109.841 Q 70.395 1110.401 72.994 1111.000 Q 75.593 1111.598 83.811 1105.290 "></path>
    <path id="STROKE_4793cbaa-f737-4900-8393-c213e46417fe" opacity="1.000" fill="none" stroke="#ffffff" stroke-width="5.101" stroke-opacity="1.000" stroke-linecap="round" stroke-linejoin="round" d="M 495.106 547.326 Q 495.106 548.196 495.106 547.990 Q 495.106 549.540 495.106 549.057 Q 494.931 548.420 495.184 553.449 Q 495.437 558.478 495.366 562.830 Q 495.294 567.181 494.760 570.989 Q 494.227 574.797 493.887 579.769 Q 494.056 578.447 494.584 578.155 "></path>
    <path id="STROKE_abcd9815-ebd4-4cce-be91-e93ebb1ad335" opacity="1.000" fill="none" stroke="#ffffff" stroke-width="5.655" stroke-opacity="1.000" stroke-linecap="round" stroke-linejoin="round" d="M 519.200 551.186 Q 519.246 550.859 515.179 549.947 Q 514.833 550.676 514.886 550.693 Q 514.553 550.995 514.657 557.417 Q 514.761 563.840 515.331 569.114 Q 515.901 574.388 517.538 579.825 Q 518.008 579.883 517.997 577.702 "></path>
    <path id="STROKE_c290e726-86da-4f45-8864-890fd3d77147" opacity="1.000" fill="none" stroke="#ffffff" stroke-width="6.688" stroke-opacity="1.000" stroke-linecap="round" stroke-linejoin="round" d="M 509.718 566.943 Q 509.718 566.970 509.718 567.175 Q 509.464 567.027 519.549 567.285 "></path>
    <path id="STROKE_3685f352-a4b0-4b8d-b4eb-e3f6fb2c004f" opacity="1.000" fill="none" stroke="#ffffff" stroke-width="6.655" stroke-opacity="1.000" stroke-linecap="round" stroke-linejoin="round" d="M 534.857 563.028 Q 534.857 563.028 534.484 562.791 Q 534.111 562.554 534.334 562.658 Q 535.558 562.310 547.917 561.823 "></path>
    <path id="STROKE_3e61ba18-1543-4e2f-966d-323846636196" opacity="1.000" fill="none" stroke="#ffffff" stroke-width="5.164" stroke-opacity="1.000" stroke-linecap="round" stroke-linejoin="round" d="M 541.996 548.996 Q 540.958 549.190 541.300 549.140 Q 540.885 549.726 541.015 549.770 Q 540.519 549.634 541.802 557.110 Q 543.085 564.586 544.119 568.665 Q 545.154 572.743 545.629 574.535 Q 546.103 576.326 546.714 577.455 Q 547.326 578.583 549.184 578.907 "></path>
    <path id="STROKE_3c458f64-deda-4440-a721-d602385b6f08" opacity="1.000" fill="none" stroke="#ffffff" stroke-width="5.057" stroke-opacity="1.000" stroke-linecap="round" stroke-linejoin="round" d="M 567.310 558.373 Q 567.180 558.313 567.351 558.357 Q 567.523 558.401 566.273 558.085 Q 565.993 557.906 566.382 561.108 Q 566.771 564.310 567.634 566.584 Q 568.496 568.858 570.792 570.022 Q 571.844 568.976 572.580 566.322 Q 573.316 563.668 573.962 562.447 Q 574.608 561.226 575.321 560.807 Q 576.033 560.389 576.927 560.987 Q 577.820 561.585 578.329 562.876 Q 578.838 564.167 579.188 564.935 Q 579.539 565.703 579.730 566.242 Q 579.921 566.780 580.414 567.868 Q 580.907 568.956 581.335 569.673 Q 581.762 570.389 581.749 570.289 Q 581.736 570.189 581.891 570.600 Q 582.046 571.011 582.473 571.268 Q 582.899 571.525 583.318 571.611 Q 583.737 571.696 583.685 571.663 Q 583.632 571.630 584.001 571.212 Q 584.370 570.795 585.008 568.823 Q 585.646 566.851 586.124 565.501 Q 586.602 564.152 587.510 563.095 "></path>
    <path id="STROKE_585b12c2-6bba-416d-9836-aa228c4e1400" opacity="1.000" fill="none" stroke="#ffffff" stroke-width="4.030" stroke-opacity="1.000" stroke-linecap="round" stroke-linejoin="round" d="M 600.965 558.660 Q 601.435 558.259 599.854 558.127 Q 598.274 557.994 597.039 558.065 Q 595.805 558.136 594.954 559.006 Q 594.103 559.877 593.904 561.227 Q 593.704 562.577 594.236 564.040 Q 594.767 565.502 596.258 566.904 Q 597.750 568.306 599.390 568.791 Q 601.031 569.276 601.999 569.267 Q 602.967 569.258 603.994 568.464 Q 605.022 567.669 605.822 565.635 Q 606.621 563.601 606.741 561.082 Q 606.860 558.564 606.782 556.974 Q 606.705 555.384 606.369 554.836 Q 606.034 554.288 604.865 553.649 Q 603.695 553.009 603.020 552.872 Q 602.344 552.735 601.107 553.020 Q 599.870 553.305 599.832 555.219 Q 599.794 557.133 599.836 559.293 Q 599.878 561.454 603.150 565.218 "></path>
    <path id="STROKE_8223d031-d1a6-4107-b756-91b866f55514" opacity="1.000" fill="none" stroke="#ffffff" stroke-width="4.171" stroke-opacity="1.000" stroke-linecap="round" stroke-linejoin="round" d="M 613.456 556.759 Q 613.818 556.871 613.169 556.748 Q 612.521 556.626 611.408 557.105 Q 610.296 557.583 610.148 559.650 Q 610.000 561.718 610.313 563.331 Q 610.626 564.943 611.061 565.647 Q 611.495 566.351 612.284 566.983 Q 613.073 567.616 614.032 567.756 Q 614.991 567.896 615.689 567.677 Q 616.388 567.457 617.915 566.381 Q 619.442 565.305 626.405 551.418 Q 625.885 551.480 625.416 555.611 Q 624.947 559.743 625.054 562.145 Q 625.162 564.547 625.247 565.945 Q 625.332 567.343 626.801 568.955 "></path>
    <path id="STROKE_b6df46df-0029-45d3-8286-68617ce5f02a" opacity="1.000" fill="none" stroke="#ffffff" stroke-width="4.351" stroke-opacity="1.000" stroke-linecap="round" stroke-linejoin="round" d="M 635.666 541.057 Q 635.451 541.571 634.446 543.018 Q 633.440 544.465 633.276 549.440 Q 633.112 554.416 633.095 557.275 Q 633.078 560.134 633.452 561.868 Q 633.826 563.601 634.420 564.912 Q 635.015 566.223 638.025 566.600 "></path>
    <path id="STROKE_8ad468b7-6d1f-49c0-a886-092e1c27c825" opacity="1.000" fill="none" stroke="#ffffff" stroke-width="4.414" stroke-opacity="1.000" stroke-linecap="round" stroke-linejoin="round" d="M 656.943 537.209 Q 657.034 537.577 657.093 537.330 Q 657.152 537.083 657.019 544.435 Q 656.885 551.786 657.900 561.768 Q 657.802 560.017 657.970 560.355 Q 658.138 560.692 657.905 559.502 Q 657.672 558.312 656.655 556.618 Q 655.639 554.923 654.121 553.880 Q 652.603 552.837 650.593 552.728 Q 648.584 552.619 647.351 552.645 Q 646.119 552.672 645.362 553.447 Q 644.605 554.223 644.130 556.098 Q 643.655 557.974 644.435 560.242 Q 645.215 562.511 647.527 563.256 Q 649.840 564.000 651.285 564.052 Q 652.730 564.104 654.084 563.814 Q 655.438 563.524 658.272 558.837 "></path>
    <path id="STROKE_8bca83de-b56c-4ca5-8d86-99147864fc1e" opacity="1.000" fill="none" stroke="#ffffff" stroke-width="6.215" stroke-opacity="1.000" stroke-linecap="round" stroke-linejoin="round" d="M 512.472 603.587 Q 511.321 603.473 511.673 603.466 Q 510.270 602.904 510.576 603.042 Q 510.882 603.180 510.003 602.780 Q 509.822 603.588 510.680 609.989 Q 511.538 616.389 511.969 620.121 Q 512.400 623.853 512.977 625.420 Q 513.554 626.987 513.674 627.394 Q 513.793 627.801 513.965 628.032 Q 514.137 628.262 515.039 628.297 Q 515.941 628.332 516.411 628.079 Q 516.881 627.826 517.399 627.473 Q 517.917 627.120 518.564 626.905 Q 519.212 626.691 522.182 624.727 Q 525.153 622.763 526.988 621.463 Q 528.824 620.163 529.481 619.032 Q 530.138 617.901 530.070 616.498 Q 530.003 615.096 528.753 613.648 Q 527.504 612.200 520.103 612.069 Q 520.254 611.654 519.965 612.786 Q 519.677 613.918 522.713 615.538 Q 525.750 617.158 527.681 618.227 Q 529.611 619.296 531.147 620.711 Q 532.683 622.126 533.211 623.849 Q 533.739 625.573 533.590 627.422 Q 533.442 629.272 533.062 630.237 Q 532.682 631.203 531.672 632.106 Q 530.663 633.010 528.554 632.250 Q 526.444 631.491 525.606 630.055 Q 524.769 628.620 524.711 627.625 Q 524.653 626.630 525.485 625.614 "></path>
    <path id="STROKE_d172d534-d475-46e8-b2a3-b91b7c39eca9" opacity="1.000" fill="none" stroke="#ffffff" stroke-width="5.209" stroke-opacity="1.000" stroke-linecap="round" stroke-linejoin="round" d="M 553.616 628.036 Q 553.456 628.115 552.492 627.920 Q 551.949 627.959 552.566 622.660 Q 553.182 617.360 554.121 613.341 Q 555.061 609.322 555.570 607.299 Q 556.080 605.276 556.957 604.261 Q 557.835 603.247 558.991 603.151 Q 559.350 603.682 560.322 609.772 Q 561.294 615.862 562.514 619.771 Q 563.733 623.681 564.384 625.598 Q 565.035 627.515 565.391 628.269 Q 565.748 629.024 566.080 629.763 Q 566.413 630.502 566.786 630.734 Q 567.158 630.967 567.685 631.104 Q 568.212 631.240 568.811 629.056 Q 569.409 626.872 570.248 621.621 Q 571.087 616.369 571.512 613.706 Q 571.937 611.043 572.296 609.825 Q 572.656 608.606 573.113 608.016 Q 573.570 607.427 573.846 607.336 Q 574.122 607.246 574.908 607.435 "></path>
    <path id="STROKE_2736e667-61d2-4bdf-826a-73f16361a800" opacity="1.000" fill="none" stroke="#ffffff" stroke-width="4.687" stroke-opacity="1.000" stroke-linecap="round" stroke-linejoin="round" d="M 594.697 606.285 Q 595.088 606.434 595.219 605.628 Q 593.817 605.409 593.644 605.384 Q 593.472 605.359 592.228 605.356 Q 590.983 605.353 590.160 605.374 Q 589.336 605.395 587.847 605.852 Q 586.359 606.309 584.931 607.279 Q 583.502 608.248 582.566 609.824 Q 581.630 611.400 581.447 613.326 Q 581.265 615.253 581.748 617.320 Q 582.232 619.386 583.510 620.898 Q 584.788 622.410 586.691 623.329 Q 588.594 624.248 590.579 624.339 Q 592.563 624.430 593.874 623.894 Q 595.184 623.358 596.664 621.585 Q 598.143 619.813 598.529 617.048 Q 598.915 614.283 599.011 612.733 Q 599.107 611.182 598.485 609.779 Q 597.864 608.376 596.890 607.213 Q 595.916 606.050 593.568 604.978 Q 591.220 603.905 587.533 604.361 Q 586.946 604.897 587.295 607.009 Q 587.643 609.121 589.916 612.212 "></path>
    <path id="STROKE_2d5ff038-d8d4-45d3-a5cb-9f80d241bba4" opacity="1.000" fill="none" stroke="#ffffff" stroke-width="3.729" stroke-opacity="1.000" stroke-linecap="round" stroke-linejoin="round" d="M 652.811 598.987 Q 652.588 599.097 650.982 598.956 Q 649.376 598.814 647.798 599.283 Q 646.220 599.751 644.710 601.218 Q 643.201 602.684 642.441 604.977 Q 641.682 607.271 641.676 610.033 Q 641.671 612.794 641.788 614.369 Q 641.905 615.943 642.800 617.299 Q 643.694 618.654 646.358 619.232 Q 649.022 619.811 651.970 619.576 Q 654.919 619.340 658.388 617.369 Q 661.856 615.398 664.605 612.959 Q 665.243 612.766 653.951 609.050 Q 654.466 609.469 658.215 608.451 Q 661.963 607.432 666.037 606.949 Q 666.923 607.430 665.448 611.572 Q 663.973 615.714 662.894 618.313 Q 661.815 620.912 662.309 623.314 "></path>
    <path id="STROKE_d2a9237e-7e9a-43df-aa3f-f2fd6ab23db8" opacity="1.000" fill="none" stroke="#ffffff" stroke-width="3.614" stroke-opacity="1.000" stroke-linecap="round" stroke-linejoin="round" d="M 688.303 602.205 Q 688.343 602.401 686.121 601.780 Q 683.899 601.158 682.323 601.010 Q 680.748 600.862 679.901 600.894 Q 679.054 600.926 678.740 603.259 Q 678.426 605.591 678.801 608.133 Q 679.177 610.675 680.278 612.650 Q 681.380 614.625 682.689 615.864 Q 683.999 617.104 685.826 617.307 Q 687.654 617.511 689.592 617.350 Q 691.531 617.189 693.190 615.575 Q 694.848 613.962 695.512 611.504 Q 696.176 609.046 696.299 606.985 Q 696.421 604.924 696.116 603.844 Q 695.811 602.763 695.132 601.899 Q 694.453 601.035 692.871 600.580 Q 691.289 600.126 690.346 600.107 Q 689.402 600.088 688.413 600.140 Q 687.424 600.193 687.058 601.617 Q 686.691 603.041 687.330 604.818 Q 687.968 606.594 690.725 609.216 "></path>
    <path id="STROKE_ce41d4e1-157e-45d9-b90e-0e2ea5578416" opacity="1.000" fill="none" stroke="#ffffff" stroke-width="4.422" stroke-opacity="1.000" stroke-linecap="round" stroke-linejoin="round" d="M 716.735 602.150 Q 716.360 602.138 714.549 601.533 Q 712.737 600.929 710.923 600.710 Q 709.108 600.492 707.652 600.837 Q 706.197 601.182 705.627 602.288 Q 705.058 603.394 704.717 605.048 Q 704.376 606.702 704.962 609.008 Q 705.548 611.313 706.722 612.999 Q 707.896 614.685 709.433 615.912 Q 710.970 617.140 713.228 617.647 Q 715.487 618.155 717.211 618.268 Q 718.936 618.380 720.243 617.257 Q 721.551 616.135 722.261 615.069 Q 722.970 614.003 723.264 611.878 Q 723.558 609.754 723.544 608.230 Q 723.530 606.706 722.982 605.586 Q 722.434 604.467 720.799 603.409 Q 719.164 602.352 717.698 602.259 Q 716.233 602.166 714.944 602.188 Q 713.656 602.211 713.350 603.662 Q 713.045 605.114 713.634 606.805 Q 714.223 608.496 715.864 610.089 "></path>
    <path id="STROKE_6212db02-cdb7-4ef3-a991-b930b2959619" opacity="1.000" fill="none" stroke="#ffffff" stroke-width="4.838" stroke-opacity="1.000" stroke-linecap="round" stroke-linejoin="round" d="M 735.193 595.880 Q 734.890 597.133 734.940 596.793 Q 734.635 597.819 734.679 597.799 Q 734.228 598.298 734.679 604.519 Q 735.130 610.740 736.270 616.989 L 736.302 616.989 Q 736.406 617.168 736.298 613.442 Q 736.191 609.717 736.412 607.349 Q 736.633 604.980 737.205 603.407 Q 737.777 601.835 738.487 600.948 Q 739.196 600.061 739.879 599.835 Q 740.562 599.609 741.318 599.633 Q 742.074 599.658 743.736 601.489 Q 745.398 603.320 746.865 605.871 Q 748.333 608.423 748.866 610.509 Q 749.400 612.596 749.632 614.790 Q 749.865 616.985 749.318 620.255 Q 748.772 623.526 731.283 615.264 "></path>
    <path id="STROKE_01f1a061-2d85-4380-b3f7-be18098cae43" opacity="1.000" fill="none" stroke="#ffffff" stroke-width="5.286" stroke-opacity="1.000" stroke-linecap="round" stroke-linejoin="round" d="M 173.240 1028.104 Q 173.337 1027.774 173.053 1027.278 Q 172.980 1027.278 172.949 1027.278 Q 172.483 1026.353 173.515 1034.695 Q 174.547 1043.037 174.803 1048.956 Q 175.059 1054.876 175.203 1058.824 Q 175.347 1062.773 173.323 1075.098 Q 173.316 1074.019 173.354 1074.148 Q 172.575 1073.432 179.814 1072.813 Q 187.053 1072.194 195.348 1071.168 "></path>
    <path id="STROKE_5e652a55-e3e2-42ab-9bd7-2247c64e674f" opacity="1.000" fill="none" stroke="#ffffff" stroke-width="3.763" stroke-opacity="1.000" stroke-linecap="round" stroke-linejoin="round" d="M 216.542 1055.262 Q 216.517 1055.077 213.911 1054.720 Q 211.305 1054.364 209.458 1054.234 Q 207.611 1054.104 207.020 1055.365 Q 206.429 1056.625 206.365 1058.750 Q 206.300 1060.875 207.411 1062.998 Q 208.522 1065.121 210.752 1067.076 Q 212.982 1069.031 215.264 1069.545 Q 217.545 1070.059 218.835 1070.137 Q 220.124 1070.215 220.844 1070.089 Q 221.563 1069.963 222.237 1069.285 Q 222.910 1068.606 223.731 1066.795 Q 224.552 1064.984 224.403 1062.012 Q 224.254 1059.041 223.730 1057.358 Q 223.206 1055.675 221.267 1052.787 Q 219.327 1049.900 211.872 1048.919 Q 211.597 1048.528 211.202 1051.202 Q 210.806 1053.876 214.591 1059.409 "></path>
    <path id="STROKE_5b13b93e-6235-425a-99d2-dd7fdff4501d" opacity="1.000" fill="none" stroke="#ffffff" stroke-width="4.537" stroke-opacity="1.000" stroke-linecap="round" stroke-linejoin="round" d="M 234.499 1057.292 Q 234.499 1057.292 234.499 1057.328 Q 234.457 1055.573 231.800 1064.992 Q 231.365 1064.287 233.504 1060.600 Q 235.644 1056.914 238.073 1054.569 Q 240.502 1052.224 242.213 1051.290 Q 243.924 1050.356 245.097 1050.057 Q 246.271 1049.759 247.137 1049.611 Q 248.002 1049.462 248.943 1050.566 Q 249.884 1051.670 250.866 1056.421 Q 251.847 1061.173 252.424 1063.973 Q 253.000 1066.773 253.689 1068.082 Q 254.378 1069.391 255.340 1069.211 "></path>
    <path id="STROKE_30c05e31-1491-4060-8121-05950eaeec94" opacity="1.000" fill="none" stroke="#ffffff" stroke-width="4.890" stroke-opacity="1.000" stroke-linecap="round" stroke-linejoin="round" d="M 272.757 1034.368 Q 272.881 1036.246 272.855 1035.878 Q 272.830 1035.510 272.879 1035.859 Q 272.928 1036.208 272.805 1036.678 Q 272.682 1037.148 273.111 1041.190 Q 273.541 1045.231 274.792 1051.506 Q 276.043 1057.781 276.765 1062.315 Q 277.486 1066.849 280.676 1070.719 L 280.790 1070.683 Q 280.967 1070.709 280.683 1067.780 Q 280.400 1064.850 278.719 1062.239 Q 277.037 1059.627 274.895 1058.040 Q 272.754 1056.452 271.457 1055.832 Q 270.161 1055.211 269.270 1055.124 Q 268.378 1055.037 266.807 1055.133 Q 265.237 1055.229 264.714 1056.559 Q 264.192 1057.888 264.132 1060.026 Q 264.072 1062.164 264.573 1063.536 Q 265.074 1064.908 266.537 1066.974 Q 268.001 1069.041 280.977 1070.037 "></path>
    <path id="STROKE_eae63314-c17e-4332-9328-8ca6c1fa33c2" opacity="1.000" fill="none" stroke="#ffffff" stroke-width="4.924" stroke-opacity="1.000" stroke-linecap="round" stroke-linejoin="round" d="M 301.051 1058.423 Q 301.547 1057.562 299.677 1055.307 Q 297.808 1053.052 289.810 1052.239 Q 288.999 1053.061 288.887 1056.066 Q 288.776 1059.072 288.975 1062.003 Q 289.174 1064.934 290.889 1067.271 Q 292.604 1069.608 295.130 1070.266 Q 297.656 1070.924 299.724 1070.827 Q 301.791 1070.730 303.800 1069.589 Q 305.809 1068.448 307.423 1065.604 Q 309.037 1062.759 309.096 1059.532 Q 309.156 1056.305 308.969 1054.529 Q 308.782 1052.753 307.764 1051.673 Q 306.745 1050.593 305.110 1050.071 Q 303.474 1049.549 302.287 1049.586 Q 301.099 1049.624 300.469 1050.319 Q 299.838 1051.014 299.743 1051.607 Q 299.647 1052.200 299.577 1052.775 Q 299.507 1053.350 299.482 1054.745 Q 299.457 1056.141 301.362 1059.032 "></path>
    <path id="STROKE_dcedd6e0-b8b8-48b7-ac66-34130b7f231f" opacity="1.000" fill="none" stroke="#ffffff" stroke-width="4.999" stroke-opacity="1.000" stroke-linecap="round" stroke-linejoin="round" d="M 332.957 1049.303 Q 330.923 1051.525 330.860 1062.643 Q 330.390 1062.693 331.384 1058.136 Q 332.378 1053.578 333.822 1050.896 Q 335.265 1048.213 336.282 1046.702 Q 337.299 1045.191 338.451 1044.740 Q 339.604 1044.288 341.255 1044.258 Q 342.907 1044.229 345.677 1046.390 Q 348.447 1048.552 351.402 1052.833 Q 354.358 1057.115 355.604 1062.193 Q 355.303 1062.121 355.002 1062.048 "></path>
    <path id="STROKE_dea06c21-ea14-4143-a6a3-d15684459329" opacity="1.000" fill="none" stroke="#ffffff" stroke-width="6.447" stroke-opacity="1.000" stroke-linecap="round" stroke-linejoin="round" d="M -43.179 733.165 Q -43.557 733.219 -43.561 733.206 Q -43.564 733.194 -43.623 733.122 Q -43.682 733.049 -44.332 733.464 Q -44.982 733.879 -44.847 734.075 Q -44.711 734.271 -44.758 735.712 Q -44.804 737.153 -44.786 738.075 Q -44.767 738.997 -44.674 739.898 Q -44.580 740.800 -44.235 744.107 Q -43.890 747.413 -43.613 751.592 Q -43.335 755.770 -43.131 763.740 Q -42.927 771.710 -43.178 780.441 Q -43.430 789.172 -43.749 794.825 Q -44.067 800.478 -44.207 806.949 Q -44.346 813.419 -47.559 841.550 Q -46.821 840.537 -46.874 840.681 Q -46.928 840.826 -46.808 840.848 Q -46.687 840.870 -46.898 840.637 Q -47.108 840.405 -41.823 839.829 Q -36.537 839.253 -28.069 840.185 Q -19.601 841.117 -15.393 841.784 Q -11.186 842.451 4.384 842.248 Q 19.953 842.045 29.147 841.872 Q 38.341 841.699 43.041 841.734 Q 47.740 841.768 58.971 841.846 Q 70.203 841.925 81.218 841.610 Q 92.234 841.296 98.116 840.987 Q 103.999 840.677 120.041 840.617 Q 136.083 840.557 144.062 840.674 Q 152.041 840.792 155.911 840.668 Q 159.781 840.544 164.748 839.729 Q 169.715 838.914 176.530 841.101 Q 176.371 841.062 176.467 841.220 Q 176.562 841.379 176.263 840.990 Q 175.964 840.602 175.698 840.183 Q 175.432 839.764 175.367 839.132 Q 175.302 838.500 174.946 838.222 Q 174.590 837.943 173.742 830.521 Q 172.895 823.099 172.912 815.999 Q 172.929 808.899 173.491 803.404 Q 174.053 797.909 175.087 793.664 Q 176.121 789.420 177.898 783.346 Q 179.676 777.272 180.673 772.106 Q 181.670 766.941 182.183 763.990 Q 182.696 761.039 182.984 758.263 Q 183.272 755.487 184.450 748.305 Q 185.628 741.123 187.204 734.153 Q 188.779 727.183 189.193 716.041 Q 189.388 716.854 182.857 717.710 Q 176.325 718.565 165.664 720.289 Q 155.002 722.012 149.683 722.975 Q 144.364 723.938 137.002 724.032 Q 129.641 724.126 124.151 724.067 Q 118.661 724.007 115.922 723.548 Q 113.183 723.090 101.731 723.353 Q 90.280 723.616 83.367 724.398 Q 76.454 725.179 68.309 725.762 Q 60.164 726.345 52.971 726.798 Q 45.779 727.250 36.482 727.623 Q 27.185 727.995 20.240 727.932 Q 13.294 727.869 0.372 729.075 Q -12.549 730.282 -19.074 731.074 Q -25.598 731.866 -29.778 732.817 Q -33.958 733.768 -41.892 734.151 Q -41.850 734.151 -41.435 734.151 "></path>
    <path id="STROKE_1f6c9973-f255-4586-b506-d921d0541422" opacity="1.000" fill="none" stroke="#ffffff" stroke-width="3.480" stroke-opacity="1.000" stroke-linecap="round" stroke-linejoin="round" d="M 39.669 734.818 Q 39.709 734.619 38.756 734.441 Q 38.476 735.653 39.707 740.078 Q 40.938 744.503 41.849 766.195 Q 40.687 766.036 40.595 766.025 Q 40.504 766.014 40.686 766.014 Q 39.873 765.780 40.043 765.818 Q 39.475 765.674 33.937 765.496 Q 28.399 765.318 23.821 764.809 Q 19.243 764.300 15.319 764.167 Q 11.394 764.034 8.267 764.096 Q 5.139 764.158 1.938 764.055 Q -1.264 763.952 -4.167 764.123 Q -7.071 764.295 -11.341 765.337 Q -15.611 766.380 -21.827 766.569 Q -28.044 766.758 -30.872 766.263 Q -33.701 765.767 -37.450 767.230 Q -41.200 768.693 -50.278 773.445 "></path>
    <path id="STROKE_59972a17-04e1-4ba3-8610-7cfcfda7c8b7" opacity="1.000" fill="none" stroke="#ffffff" stroke-width="3.598" stroke-opacity="1.000" stroke-linecap="round" stroke-linejoin="round" d="M -40.605 790.265 Q -40.605 790.229 -40.605 789.815 Q -40.784 789.488 -39.141 790.180 Q -37.497 790.871 -36.605 791.212 Q -35.713 791.553 -35.582 791.590 Q -35.452 791.627 -30.993 793.113 Q -26.534 794.599 -20.407 796.225 Q -14.279 797.851 -11.455 798.452 Q -8.631 799.053 -3.867 799.412 Q 0.898 799.772 9.818 799.941 Q 18.739 800.109 26.853 799.690 Q 34.967 799.270 48.865 796.224 Q 49.514 796.224 46.872 796.224 Q 46.729 796.013 46.730 803.288 Q 46.731 810.563 46.007 815.469 Q 45.282 820.374 44.658 823.244 Q 44.033 826.114 42.648 827.602 Q 42.179 828.154 42.990 819.003 "></path>
    <path id="STROKE_888ff7a3-660d-44a7-80c7-e34f8ad76213" opacity="1.000" fill="none" stroke="#ffffff" stroke-width="4.107" stroke-opacity="1.000" stroke-linecap="round" stroke-linejoin="round" d="M 77.844 731.280 Q 77.844 730.402 77.844 730.482 Q 77.844 728.574 77.844 729.279 Q 77.844 729.199 77.844 729.090 Q 78.857 729.030 74.440 764.687 Q 74.440 765.338 74.440 763.629 Q 75.358 763.423 85.532 764.209 Q 95.706 764.995 105.657 765.990 Q 115.608 766.985 120.678 767.540 Q 125.748 768.095 132.083 768.003 Q 138.417 767.910 142.497 767.973 Q 146.578 768.036 151.720 768.854 Q 156.862 769.673 161.128 771.814 L 161.128 771.850 Q 160.795 771.778 160.463 771.705 "></path>
    <path id="STROKE_462321ba-7524-4bee-9793-186c68b556dd" opacity="1.000" fill="none" stroke="#ffffff" stroke-width="3.358" stroke-opacity="1.000" stroke-linecap="round" stroke-linejoin="round" d="M 76.474 833.401 Q 76.593 834.083 76.602 832.503 Q 76.611 830.924 76.779 827.687 Q 76.948 824.450 77.724 821.413 Q 78.499 818.376 79.285 813.918 Q 80.070 809.460 81.421 803.407 Q 82.771 797.353 83.855 794.058 Q 84.938 790.763 85.646 789.305 Q 86.355 787.847 86.725 787.385 Q 87.095 786.922 87.610 786.898 Q 88.125 786.873 88.335 786.871 Q 88.545 786.869 88.897 786.871 Q 89.249 786.873 89.641 786.872 Q 90.032 786.871 90.540 786.909 Q 91.048 786.946 90.721 786.914 Q 90.393 786.882 92.968 786.728 Q 95.543 786.574 99.948 787.797 Q 104.354 789.021 110.096 790.180 Q 115.838 791.340 120.682 791.794 Q 125.526 792.247 136.392 792.215 Q 147.258 792.182 162.083 792.375 Q 162.575 793.790 161.211 795.166 "></path>
    <path id="STROKE_fffd7e36-6a44-4bd3-bcec-2ac0c5910a75" opacity="1.000" fill="none" stroke="#ffffff" stroke-width="4.203" stroke-opacity="1.000" stroke-linecap="round" stroke-linejoin="round" d="M -16.006 733.005 Q -16.006 733.005 -15.095 733.005 Q -14.185 733.005 -14.770 733.005 Q -14.220 733.005 -10.376 735.375 Q -6.531 737.744 -3.062 740.150 Q 0.407 742.557 6.081 745.007 Q 11.755 747.458 17.170 749.335 Q 22.585 751.212 26.757 753.486 Q 26.734 754.277 26.612 754.204 Q 25.737 754.649 25.781 754.545 Q 24.956 754.893 24.868 754.958 "></path>
    <path id="STROKE_0dfbc135-50bf-41c6-ba76-f670e1590159" opacity="1.000" fill="none" stroke="#ffffff" stroke-width="4.845" stroke-opacity="1.000" stroke-linecap="round" stroke-linejoin="round" d="M -45.960 743.953 Q -46.527 743.435 -37.436 746.773 Q -28.344 750.111 -22.611 752.233 Q -16.879 754.355 -13.648 756.220 Q -10.418 758.086 -8.533 759.567 Q -6.647 761.049 -1.599 767.631 "></path>
    <path id="STROKE_df1c2bfd-1aa0-47f0-9b2f-4c6b6582cc7e" opacity="1.000" fill="none" stroke="#ffffff" stroke-width="4.448" stroke-opacity="1.000" stroke-linecap="round" stroke-linejoin="round" d="M -35.415 835.446 Q -35.718 835.727 -35.283 835.181 Q -34.848 834.635 -33.595 833.404 Q -32.343 832.173 -31.548 831.499 Q -30.752 830.826 -29.578 829.051 Q -28.404 827.275 -21.404 821.373 Q -14.404 815.471 -9.681 812.497 Q -4.958 809.522 -2.776 807.728 Q -0.594 805.934 0.509 804.992 Q 1.612 804.051 2.324 804.141 "></path>
    <path id="STROKE_a4f4b421-a9b7-4d54-9e8e-9c1b643b3817" opacity="1.000" fill="none" stroke="#ffffff" stroke-width="4.389" stroke-opacity="1.000" stroke-linecap="round" stroke-linejoin="round" d="M -9.072 840.941 Q -9.072 840.941 -9.093 840.941 Q -9.114 840.941 -9.218 840.941 Q -9.585 840.149 -5.158 835.143 Q -0.732 830.137 3.844 825.622 Q 8.420 821.106 11.221 818.676 Q 14.022 816.246 16.890 814.075 Q 19.757 811.905 35.891 807.302 "></path>
    <path id="STROKE_88e3a504-e568-47ec-91bc-2c6e5226cbba" opacity="1.000" fill="none" stroke="#ffffff" stroke-width="3.996" stroke-opacity="1.000" stroke-linecap="round" stroke-linejoin="round" d="M 101.239 765.064 Q 101.401 765.174 101.561 764.256 Q 101.720 763.337 105.859 758.571 Q 109.997 753.805 113.152 750.907 Q 116.306 748.010 119.884 745.376 Q 123.461 742.743 127.142 739.796 Q 130.823 736.848 133.990 731.913 Q 137.157 726.979 143.483 721.014 Q 143.441 721.130 142.881 721.855 "></path>
    <path id="STROKE_94c2e590-3ee8-4eae-9c3a-961754ccf24a" opacity="1.000" fill="none" stroke="#ffffff" stroke-width="3.949" stroke-opacity="1.000" stroke-linecap="round" stroke-linejoin="round" d="M 127.478 765.746 Q 127.478 765.782 127.333 766.123 Q 127.387 766.230 132.057 762.091 Q 136.728 757.951 143.752 754.611 Q 150.777 751.270 154.372 750.334 Q 157.968 749.399 161.963 746.451 Q 165.958 743.504 168.453 741.548 Q 170.948 739.592 174.326 738.330 Q 177.704 737.068 183.173 735.804 Q 183.210 736.098 182.862 737.007 "></path>
    <path id="STROKE_4a6700cb-be19-40f7-b5af-46fc4a829f54" opacity="1.000" fill="none" stroke="#ffffff" stroke-width="3.379" stroke-opacity="1.000" stroke-linecap="round" stroke-linejoin="round" d="M 132.003 798.182 Q 132.358 798.145 132.264 798.150 Q 132.171 798.156 132.086 798.171 Q 132.002 798.186 132.154 798.164 Q 132.307 798.142 132.054 798.164 Q 131.802 798.186 130.571 798.370 Q 131.469 798.751 135.853 801.129 Q 140.238 803.506 143.318 807.422 Q 146.397 811.338 151.219 816.791 Q 156.041 822.243 159.282 825.061 Q 162.524 827.878 165.508 833.561 Q 165.063 833.553 164.075 832.720 "></path>
    <path id="STROKE_74aa9119-11d5-4c13-b9d9-dc9c7b44aa11" opacity="1.000" fill="none" stroke="#ffffff" stroke-width="3.605" stroke-opacity="1.000" stroke-linecap="round" stroke-linejoin="round" d="M 108.172 798.327 Q 108.014 798.465 112.927 805.372 Q 117.840 812.278 121.226 817.888 Q 124.613 823.497 127.845 828.143 Q 131.078 832.789 133.464 836.626 Q 135.850 840.464 137.297 845.103 "></path>
    <path id="STROKE_da922038-be5f-4486-b2cb-417f72c74406" opacity="1.000" fill="none" stroke="#ffffff" stroke-width="5.045" stroke-opacity="1.000" stroke-linecap="round" stroke-linejoin="round" d="M 374.173 441.399 Q 374.472 441.905 373.654 440.268 Q 373.796 441.165 378.927 466.585 Q 378.987 466.561 379.091 466.477 Q 379.194 466.393 378.492 464.678 Q 377.791 462.962 377.274 456.490 Q 376.757 450.017 376.944 445.477 Q 377.132 440.937 377.526 438.616 Q 377.921 436.296 378.480 434.949 Q 379.040 433.602 379.809 433.291 Q 380.577 432.979 382.559 433.003 Q 384.540 433.027 385.940 433.889 Q 387.341 434.752 388.902 436.324 Q 390.464 437.897 391.001 440.560 Q 391.539 443.224 391.467 445.753 Q 391.395 448.283 390.760 449.545 Q 390.125 450.808 388.408 451.968 Q 386.691 453.128 384.518 453.083 Q 382.345 453.037 380.899 450.490 Q 381.127 450.150 383.161 449.011 "></path>
    <path id="STROKE_c7324f5c-031c-4d46-a13c-046f181e7782" opacity="1.000" fill="none" stroke="#ffffff" stroke-width="4.917" stroke-opacity="1.000" stroke-linecap="round" stroke-linejoin="round" d="M 402.176 449.621 Q 402.671 450.359 402.849 450.440 Q 403.028 450.521 402.982 450.465 Q 402.937 450.408 402.814 450.474 Q 402.692 450.540 405.429 450.791 Q 408.166 451.042 410.934 450.175 Q 413.703 449.308 415.388 448.313 Q 417.073 447.318 417.844 446.521 Q 418.615 445.725 418.603 444.885 Q 418.591 444.046 418.315 443.549 Q 418.038 443.052 417.657 443.019 Q 417.276 442.985 416.669 442.764 Q 416.061 442.543 413.422 442.281 Q 410.783 442.018 408.607 442.594 Q 406.430 443.170 405.537 443.655 Q 404.644 444.141 403.747 445.120 Q 402.850 446.099 402.700 447.533 Q 402.550 448.966 403.040 450.513 Q 403.531 452.061 406.799 454.494 Q 410.068 456.928 416.500 458.596 "></path>
    <path id="STROKE_e61ca328-3e84-41ba-8f2f-b0e0671089b1" opacity="1.000" fill="none" stroke="#ffffff" stroke-width="3.989" stroke-opacity="1.000" stroke-linecap="round" stroke-linejoin="round" d="M 436.262 446.822 Q 436.396 446.704 433.921 446.080 Q 431.445 445.455 429.959 445.402 Q 428.473 445.348 427.715 445.230 Q 426.957 445.112 426.750 446.090 Q 426.542 447.067 426.474 448.323 Q 426.405 449.579 427.373 451.115 Q 428.341 452.652 429.435 453.859 Q 430.529 455.067 432.333 456.255 Q 434.138 457.443 435.924 457.546 Q 437.711 457.649 438.421 457.229 Q 439.132 456.809 439.501 456.081 Q 439.870 455.353 440.149 453.010 Q 440.429 450.667 439.483 448.568 Q 438.538 446.470 436.747 445.235 Q 434.956 444.001 432.927 443.912 Q 430.899 443.823 429.878 444.050 Q 428.857 444.278 428.786 445.846 Q 428.716 447.414 428.917 448.952 Q 429.118 450.491 430.470 452.187 "></path>
    <path id="STROKE_afd357cb-613f-4efb-a8b9-8b8d5a20a7ab" opacity="1.000" fill="none" stroke="#ffffff" stroke-width="3.527" stroke-opacity="1.000" stroke-linecap="round" stroke-linejoin="round" d="M 448.426 445.010 Q 448.536 445.238 450.522 447.232 Q 452.508 449.227 453.960 453.901 Q 455.413 458.575 455.962 466.063 Q 454.671 465.324 454.135 460.811 Q 453.599 456.298 453.808 453.000 Q 454.017 449.701 454.927 447.371 Q 455.836 445.041 456.911 443.115 Q 457.986 441.189 459.300 439.898 Q 460.613 438.607 461.811 438.400 Q 463.009 438.193 463.518 438.134 Q 464.027 438.075 464.651 438.137 Q 465.276 438.199 465.672 439.929 Q 466.068 441.660 465.877 443.569 Q 465.687 445.478 465.400 446.478 Q 465.112 447.479 464.258 448.711 Q 463.403 449.943 461.522 450.426 Q 459.641 450.909 456.190 444.256 "></path>
    <path id="STROKE_3fc03eec-aa60-4b43-b269-2a6056fd0d09" opacity="1.000" fill="none" stroke="#ffffff" stroke-width="6.506" stroke-opacity="1.000" stroke-linecap="round" stroke-linejoin="round" d="M 471.655 416.953 Q 471.631 415.951 471.976 419.178 Q 472.321 422.405 472.476 427.174 Q 472.632 431.944 473.026 436.341 Q 473.421 440.738 474.175 443.738 Q 474.929 446.738 477.758 449.548 "></path>
    <path id="STROKE_351797e5-f3ec-4350-bca9-6f7c60280b1b" opacity="1.000" fill="none" stroke="#ffffff" stroke-width="3.643" stroke-opacity="1.000" stroke-linecap="round" stroke-linejoin="round" d="M 484.858 439.137 Q 484.858 439.173 484.858 439.318 Q 484.357 439.475 486.064 439.426 Q 487.771 439.377 489.995 438.298 Q 492.218 437.219 493.562 436.458 Q 494.907 435.697 496.161 434.894 Q 497.415 434.090 497.458 432.235 Q 497.726 431.599 494.434 431.396 Q 491.142 431.192 489.385 431.371 Q 487.628 431.550 486.586 431.790 Q 485.544 432.031 485.404 432.229 Q 485.264 432.427 484.927 432.339 Q 484.591 432.251 484.541 433.608 Q 484.491 434.965 484.282 435.927 Q 484.072 436.889 487.264 440.725 Q 490.456 444.560 498.060 449.620 "></path>
    <path id="STROKE_d1ace821-3ccf-4c78-a4d8-c7fa0676b4ea" opacity="1.000" fill="none" stroke="#ffffff" stroke-width="4.985" stroke-opacity="1.000" stroke-linecap="round" stroke-linejoin="round" d="M 515.215 795.283 Q 515.400 794.679 515.288 794.537 Q 515.177 794.395 515.217 794.483 Q 515.257 794.571 515.066 794.227 Q 514.874 793.884 514.385 793.485 Q 514.232 794.312 515.190 804.557 Q 516.148 814.803 515.817 834.056 Q 515.985 833.518 515.381 821.455 "></path>
    <path id="STROKE_b547316b-7758-4abd-850c-c3fdc3089fc4" opacity="1.000" fill="none" stroke="#ffffff" stroke-width="4.982" stroke-opacity="1.000" stroke-linecap="round" stroke-linejoin="round" d="M 513.783 800.271 Q 513.729 799.605 516.111 797.554 Q 518.494 795.502 521.243 795.032 Q 523.993 794.561 525.571 794.479 Q 527.150 794.397 528.157 795.072 Q 529.164 795.746 529.871 798.836 "></path>
    <path id="STROKE_eb76ef50-f4d2-4b6d-a60f-5ed24bae92ea" opacity="1.000" fill="none" stroke="#ffffff" stroke-width="5.194" stroke-opacity="1.000" stroke-linecap="round" stroke-linejoin="round" d="M 519.221 809.624 Q 519.045 809.675 518.246 810.109 Q 517.873 810.468 520.302 811.032 Q 522.730 811.595 529.102 813.162 "></path>
    <path id="STROKE_8d581013-1ff3-4f09-8a84-9e5c87c0f3e7" opacity="1.000" fill="none" stroke="#ffffff" stroke-width="5.616" stroke-opacity="1.000" stroke-linecap="round" stroke-linejoin="round" d="M 538.465 815.424 Q 538.578 815.565 537.032 815.199 Q 536.023 814.461 539.539 814.006 Q 543.055 813.551 545.344 813.002 Q 547.634 812.453 549.482 811.211 Q 551.330 809.969 551.366 807.811 Q 551.156 807.523 549.282 807.489 Q 547.408 807.455 545.383 809.147 Q 543.357 810.840 542.203 812.435 Q 541.049 814.031 540.554 816.540 Q 540.058 819.049 540.481 820.869 Q 540.905 822.690 542.915 824.003 Q 544.924 825.316 549.778 826.284 "></path>
    <path id="STROKE_39062e3a-17a2-4a9d-98e4-dd1ef2c1c9f8" opacity="1.000" fill="none" stroke="#ffffff" stroke-width="4.863" stroke-opacity="1.000" stroke-linecap="round" stroke-linejoin="round" d="M 565.015 816.250 Q 564.984 816.250 564.185 816.250 Q 566.522 816.250 566.032 816.250 Q 565.711 816.754 568.009 816.142 Q 570.306 815.529 571.802 814.992 Q 573.299 814.455 574.690 813.542 Q 576.081 812.628 576.909 810.839 Q 577.738 809.050 577.353 807.874 Q 576.969 806.698 575.430 806.050 Q 573.891 805.402 572.305 805.501 Q 570.718 805.600 569.879 805.600 Q 569.039 805.599 567.064 806.860 Q 565.088 808.121 564.522 811.348 Q 563.956 814.575 564.186 817.490 Q 564.416 820.406 567.019 823.287 Q 569.622 826.168 574.834 828.096 "></path>
    <path id="STROKE_6df51fad-01f3-4aeb-90d0-36d32515a725" opacity="1.000" fill="none" stroke="#ffffff" stroke-width="5.247" stroke-opacity="1.000" stroke-linecap="round" stroke-linejoin="round" d="M 583.345 796.124 Q 581.820 796.011 582.182 796.001 Q 581.016 795.775 581.193 795.781 Q 581.369 795.788 580.221 795.856 Q 579.284 796.939 580.496 804.597 Q 581.707 812.255 583.358 816.946 Q 585.010 821.636 586.156 824.542 Q 587.302 827.447 590.589 829.082 "></path>
    <path id="STROKE_daabe7ae-efa5-49d3-97e5-fb79397f5fc4" opacity="1.000" fill="none" stroke="#ffffff" stroke-width="2.799" stroke-opacity="1.000" stroke-linecap="round" stroke-linejoin="round" d="M 601.384 811.726 Q 601.384 812.872 601.384 812.756 Q 600.868 815.426 600.325 820.252 "></path>
    <path id="STROKE_2134c787-ca93-4b79-b16d-5d7482dbb051" opacity="1.000" fill="none" stroke="#ffffff" stroke-width="2.316" stroke-opacity="1.000" stroke-linecap="round" stroke-linejoin="round" d="M 598.519 790.455 Q 598.274 791.105 599.038 795.370 "></path>
    <path id="STROKE_d648ee60-af9f-4668-8e25-bc56d7ca3e15" opacity="1.000" fill="none" stroke="#ffffff" stroke-width="4.748" stroke-opacity="1.000" stroke-linecap="round" stroke-linejoin="round" d="M 609.978 813.539 Q 609.856 813.270 610.128 814.057 Q 610.400 814.844 608.214 819.048 Q 606.654 818.308 606.756 815.289 Q 606.859 812.270 608.160 810.570 Q 609.462 808.870 611.007 808.187 Q 612.552 807.503 613.964 807.431 Q 615.377 807.358 616.455 808.592 Q 617.533 809.827 618.253 811.286 Q 618.973 812.745 619.845 816.487 Q 620.716 820.230 623.180 824.558 "></path>
    <path id="STROKE_c89f2bcd-a59f-4c17-8366-9ad46e23af81" opacity="1.000" fill="none" stroke="#ffffff" stroke-width="4.777" stroke-opacity="1.000" stroke-linecap="round" stroke-linejoin="round" d="M 634.349 811.958 Q 634.037 811.879 633.103 811.185 Q 632.168 810.492 629.915 810.243 Q 627.661 809.995 626.447 809.865 Q 625.232 809.735 624.226 810.298 Q 623.220 810.861 622.981 813.248 Q 622.742 815.636 622.942 817.193 Q 623.141 818.750 624.287 820.028 Q 625.432 821.306 627.164 821.844 Q 628.895 822.382 632.764 820.002 Q 636.633 817.623 641.033 815.728 Q 641.371 816.366 641.110 819.432 Q 640.849 822.498 639.338 825.454 Q 637.828 828.411 635.240 830.217 Q 632.651 832.023 629.761 833.157 "></path>
    <path id="STROKE_5df55672-2942-47a6-b542-04bc44782eed" opacity="1.000" fill="none" stroke="#ffffff" stroke-width="4.966" stroke-opacity="1.000" stroke-linecap="round" stroke-linejoin="round" d="M 665.736 806.521 Q 665.193 806.516 661.353 806.415 Q 657.513 806.314 655.039 806.525 Q 652.566 806.737 651.404 807.092 Q 650.242 807.447 649.820 808.757 Q 649.397 810.066 650.930 811.878 Q 652.462 813.689 655.510 814.220 Q 658.557 814.750 660.182 814.911 Q 661.806 815.073 663.146 815.670 Q 664.487 816.267 665.014 817.291 Q 665.541 818.315 665.634 819.649 Q 665.728 820.983 664.266 822.031 Q 662.804 823.078 661.734 823.374 Q 660.664 823.670 658.975 823.739 Q 657.285 823.808 653.447 822.369 "></path>
    <path id="STROKE_9566c354-2a6a-4ba5-867b-cb122ae30008" opacity="1.000" fill="none" stroke="#ffffff" stroke-width="6.661" stroke-opacity="1.000" stroke-linecap="round" stroke-linejoin="round" d="M -503.773 597.047 Q -504.456 596.119 -504.271 596.373 Q -504.582 595.188 -504.458 595.503 Q -504.051 593.802 -504.043 594.372 Q -503.441 593.701 -499.766 593.027 Q -496.090 592.354 -493.371 592.476 Q -490.651 592.598 -488.692 593.735 Q -486.733 594.872 -485.951 597.397 Q -485.169 599.922 -485.205 604.557 Q -485.242 609.193 -486.695 614.220 Q -488.148 619.247 -488.996 622.228 Q -489.845 625.208 -490.941 626.612 Q -492.037 628.015 -492.721 628.464 Q -493.404 628.913 -494.975 627.848 Q -496.545 626.782 -497.929 618.166 Q -497.971 617.866 -495.096 617.346 "></path>
    <path id="STROKE_ec4fc42b-bae1-4481-a689-257aea2f22c4" opacity="1.000" fill="none" stroke="#ffffff" stroke-width="5.109" stroke-opacity="1.000" stroke-linecap="round" stroke-linejoin="round" d="M -461.612 614.853 Q -461.570 614.852 -461.529 614.852 Q -462.932 614.756 -462.733 614.700 Q -463.361 614.393 -464.922 614.266 Q -466.482 614.138 -467.162 614.571 Q -467.842 615.004 -468.255 616.956 Q -468.667 618.909 -467.124 621.554 Q -465.582 624.199 -463.764 625.794 Q -461.947 627.390 -459.869 628.139 Q -457.792 628.888 -456.088 629.162 Q -454.383 629.436 -452.444 628.792 Q -450.504 628.148 -448.439 625.824 Q -446.374 623.501 -445.483 620.343 Q -444.592 617.185 -444.634 615.095 Q -444.677 613.005 -445.673 611.857 Q -446.670 610.709 -449.870 610.183 Q -453.070 609.656 -454.748 609.691 Q -456.426 609.725 -457.395 609.834 Q -458.364 609.943 -459.120 611.395 Q -459.876 612.847 -455.198 616.216 "></path>
    <path id="STROKE_c9503740-ffa9-4d50-a8c9-b0991c842668" opacity="1.000" fill="none" stroke="#ffffff" stroke-width="5.220" stroke-opacity="1.000" stroke-linecap="round" stroke-linejoin="round" d="M -433.692 589.884 Q -432.610 589.717 -432.585 589.712 Q -432.559 589.707 -432.633 589.739 Q -432.076 591.186 -432.000 595.553 Q -431.924 599.919 -432.372 605.317 Q -432.820 610.714 -433.366 614.447 Q -433.912 618.179 -435.207 624.727 Q -435.367 625.076 -435.079 621.936 Q -434.792 618.795 -433.515 616.783 Q -432.238 614.771 -431.152 613.567 Q -430.067 612.362 -428.099 611.711 Q -426.130 611.060 -425.399 610.978 Q -424.669 610.895 -422.851 611.828 Q -421.034 612.761 -420.982 615.023 Q -420.930 617.284 -421.322 619.278 Q -421.714 621.272 -422.943 623.132 Q -424.173 624.991 -426.364 625.068 Q -425.901 623.191 -425.845 623.596 "></path>
    <path id="STROKE_4fb1e754-1d2c-427d-bcfe-b765a5fa8dbb" opacity="1.000" fill="none" stroke="#ffffff" stroke-width="5.326" stroke-opacity="1.000" stroke-linecap="round" stroke-linejoin="round" d="M -400.416 607.008 Q -399.936 606.786 -399.585 606.066 Q -399.352 605.843 -400.521 605.935 Q -401.690 606.027 -403.547 606.988 Q -405.403 607.949 -406.719 608.953 Q -408.035 609.958 -408.685 611.115 Q -409.336 612.272 -409.799 613.516 Q -410.261 614.760 -407.513 616.715 Q -404.765 618.670 -402.961 619.632 Q -401.157 620.594 -400.498 621.644 Q -399.838 622.694 -399.428 624.427 Q -399.017 626.159 -402.305 631.150 "></path>
    <path id="STROKE_735957c8-bfff-410b-a232-d5909ff3e354" opacity="1.000" fill="none" stroke="#ffffff" stroke-width="4.765" stroke-opacity="1.000" stroke-linecap="round" stroke-linejoin="round" d="M -570.320 797.336 Q -570.288 796.916 -572.497 795.591 Q -574.706 794.266 -577.351 794.003 Q -579.997 793.740 -581.689 794.218 Q -583.382 794.696 -585.607 796.670 Q -587.832 798.643 -588.756 801.825 Q -589.681 805.006 -589.773 807.334 Q -589.866 809.663 -588.500 811.970 Q -587.133 814.278 -585.377 815.270 Q -583.622 816.263 -579.378 818.072 Q -575.134 819.882 -572.917 821.111 Q -570.700 822.341 -569.549 823.402 Q -568.398 824.463 -568.056 825.723 Q -567.713 826.983 -568.985 828.995 Q -570.257 831.007 -572.879 832.703 Q -575.500 834.400 -586.348 832.613 Q -586.348 832.480 -578.118 831.510 "></path>
    <path id="STROKE_00132add-e8a4-4ddf-ae7d-57303ddf16cf" opacity="1.000" fill="none" stroke="#ffffff" stroke-width="5.872" stroke-opacity="1.000" stroke-linecap="round" stroke-linejoin="round" d="M -535.130 824.657 Q -535.013 823.655 -535.054 823.776 Q -535.353 821.631 -535.462 822.112 Q -535.665 821.371 -538.419 819.593 Q -541.173 817.816 -543.106 817.314 Q -545.038 816.812 -546.128 816.748 Q -547.217 816.684 -548.013 817.558 Q -548.808 818.432 -549.192 821.317 Q -549.576 824.201 -549.114 827.321 Q -548.652 830.440 -546.783 833.325 Q -544.913 836.211 -543.290 838.030 Q -541.668 839.849 -537.658 841.152 Q -533.648 842.456 -528.378 835.942 "></path>
    <path id="STROKE_391a786d-e1e8-4028-befb-29499d03885b" opacity="1.000" fill="none" stroke="#ffffff" stroke-width="5.306" stroke-opacity="1.000" stroke-linecap="round" stroke-linejoin="round" d="M -520.606 794.756 Q -521.926 795.613 -521.523 795.396 Q -522.842 796.094 -523.412 803.849 Q -523.982 811.604 -525.779 830.210 Q -526.339 829.607 -524.751 825.572 Q -523.162 821.538 -521.024 818.639 Q -518.885 815.741 -516.662 814.642 Q -514.440 813.544 -513.201 813.462 Q -511.962 813.381 -510.676 813.944 Q -509.391 814.508 -508.211 820.144 Q -507.031 825.780 -506.718 829.124 Q -506.405 832.468 -505.688 834.646 Q -504.972 836.823 -501.699 838.451 "></path>
    <path id="STROKE_2b07831a-648a-47d4-b7b1-fe2c233ff8e3" opacity="1.000" fill="none" stroke="#ffffff" stroke-width="4.739" stroke-opacity="1.000" stroke-linecap="round" stroke-linejoin="round" d="M -487.531 820.492 Q -489.758 818.562 -489.200 819.193 Q -490.369 818.800 -491.076 818.608 Q -491.782 818.416 -493.638 818.083 Q -495.493 817.751 -496.482 817.794 Q -497.471 817.836 -498.716 818.673 Q -499.961 819.509 -500.089 819.990 Q -500.218 820.471 -500.289 821.750 Q -500.361 823.030 -500.631 823.496 Q -500.902 823.962 -499.813 826.217 Q -498.724 828.473 -496.640 830.086 Q -494.555 831.700 -491.158 832.219 Q -487.762 832.739 -485.333 831.774 Q -482.905 830.810 -482.323 829.199 Q -481.742 827.589 -481.281 825.715 Q -480.821 823.842 -483.438 821.535 Q -486.054 819.229 -492.347 819.006 Q -494.978 820.748 -487.633 827.897 "></path>
    <path id="STROKE_a6173be8-80e9-47a1-ac63-3a9b8934173c" opacity="1.000" fill="none" stroke="#ffffff" stroke-width="4.857" stroke-opacity="1.000" stroke-linecap="round" stroke-linejoin="round" d="M -459.094 820.030 Q -459.805 819.529 -463.433 818.398 Q -467.060 817.266 -469.017 816.941 Q -470.973 816.616 -472.400 816.711 Q -473.828 816.806 -473.946 819.137 Q -474.065 821.469 -472.816 824.378 Q -471.568 827.288 -468.916 829.345 Q -466.265 831.403 -464.128 832.102 Q -461.992 832.802 -459.937 832.858 Q -457.882 832.914 -456.836 832.769 Q -455.790 832.625 -455.689 832.576 Q -455.588 832.527 -454.303 831.203 Q -453.019 829.879 -453.049 827.766 Q -453.079 825.654 -453.909 824.078 Q -454.738 822.501 -455.339 821.866 Q -455.940 821.232 -457.298 820.244 Q -458.655 819.257 -459.945 818.805 Q -461.234 818.354 -462.558 818.345 Q -463.882 818.336 -464.836 818.584 Q -465.789 818.832 -464.190 826.224 "></path>
    <path id="STROKE_3c6355e1-7921-42a4-803c-bf6be63611b7" opacity="1.000" fill="none" stroke="#ffffff" stroke-width="6.351" stroke-opacity="1.000" stroke-linecap="round" stroke-linejoin="round" d="M -436.135 798.547 Q -436.795 798.709 -437.602 798.335 Q -438.408 797.962 -439.300 798.101 Q -440.193 798.241 -440.683 802.225 Q -441.174 806.210 -441.139 809.943 Q -441.104 813.676 -439.771 820.431 Q -438.437 827.186 -433.459 834.660 "></path>
    <path id="STROKE_bbecd297-7e25-4a9c-90d2-da70053daf65" opacity="1.000" fill="none" stroke="#ffffff" stroke-width="6.547" stroke-opacity="1.000" stroke-linecap="round" stroke-linejoin="round" d="M -172.297 968.061 Q -171.165 968.167 -175.533 967.883 Q -175.437 969.357 -175.393 969.360 Q -174.108 970.632 -169.520 999.725 Q -169.469 999.725 -169.418 999.725 Q -169.418 999.680 -168.959 997.874 "></path>
    <path id="STROKE_d2217bf7-0b3f-41f7-808d-3ce43145b77d" opacity="1.000" fill="none" stroke="#ffffff" stroke-width="5.392" stroke-opacity="1.000" stroke-linecap="round" stroke-linejoin="round" d="M -152.753 961.582 Q -152.702 961.582 -152.473 961.582 Q -152.458 961.713 -152.535 961.514 Q -152.613 961.314 -152.197 962.240 Q -151.781 963.167 -151.224 964.322 Q -150.668 965.477 -150.348 972.763 Q -150.028 980.049 -149.917 984.726 Q -149.805 989.403 -150.804 993.068 Q -150.922 993.267 -151.097 993.224 Q -151.272 993.180 -151.781 992.859 Q -152.290 992.539 -153.029 991.869 Q -153.767 991.200 -154.588 990.202 "></path>
    <path id="STROKE_8b85e810-5c65-42d3-82c3-c8e6ff3ff173" opacity="1.000" fill="none" stroke="#ffffff" stroke-width="4.497" stroke-opacity="1.000" stroke-linecap="round" stroke-linejoin="round" d="M -164.143 982.140 Q -166.152 982.140 -165.532 982.140 Q -165.710 982.140 -166.360 982.140 Q -164.895 981.843 -164.831 981.961 Q -164.210 981.861 -152.651 982.051 "></path>
    <path id="STROKE_1eca60e4-6753-4d4d-94bf-c9d452979779" opacity="1.000" fill="none" stroke="#ffffff" stroke-width="4.051" stroke-opacity="1.000" stroke-linecap="round" stroke-linejoin="round" d="M -134.865 979.185 Q -136.084 978.540 -136.037 978.624 Q -138.077 977.833 -137.830 977.889 Q -137.583 977.946 -139.324 977.743 Q -139.777 978.306 -139.342 980.368 Q -138.908 982.431 -137.912 983.774 Q -136.917 985.117 -136.119 985.892 Q -135.321 986.666 -134.784 987.058 Q -134.246 987.450 -133.898 987.683 Q -133.551 987.916 -133.139 988.315 Q -132.727 988.715 -131.097 988.702 Q -129.468 988.690 -128.254 988.029 Q -127.040 987.369 -126.953 986.931 Q -126.867 986.492 -126.661 986.014 Q -126.454 985.536 -126.276 984.674 Q -126.098 983.812 -126.021 982.584 Q -125.944 981.357 -126.024 979.698 Q -126.104 978.039 -127.385 976.231 Q -128.666 974.424 -133.170 974.370 Q -133.839 974.937 -133.753 977.526 Q -133.668 980.116 -130.890 983.065 "></path>
    <path id="STROKE_bbfffe8a-568b-4610-a89f-3a9774b56f6c" opacity="1.000" fill="none" stroke="#ffffff" stroke-width="3.892" stroke-opacity="1.000" stroke-linecap="round" stroke-linejoin="round" d="M -122.557 962.419 Q -122.506 962.419 -122.137 962.463 Q -122.150 964.039 -119.678 986.678 Q -119.558 986.854 -119.826 985.109 Q -120.094 983.364 -119.297 981.907 Q -118.500 980.449 -117.714 979.881 Q -116.928 979.313 -116.247 979.063 Q -115.567 978.813 -115.080 978.702 Q -114.592 978.590 -114.149 978.634 Q -113.706 978.677 -113.829 978.713 Q -113.953 978.748 -113.238 978.460 Q -112.523 978.173 -111.291 978.970 Q -110.059 979.766 -109.537 980.514 Q -109.015 981.262 -108.895 982.638 Q -108.774 984.014 -108.709 985.065 Q -108.645 986.116 -109.014 986.309 Q -109.383 986.502 -109.609 986.678 Q -109.835 986.854 -111.379 987.080 Q -112.923 987.306 -116.722 983.065 "></path>
    <path id="STROKE_c77808b2-e9c6-45c8-a804-32ce54a74663" opacity="1.000" fill="none" stroke="#ffffff" stroke-width="4.629" stroke-opacity="1.000" stroke-linecap="round" stroke-linejoin="round" d="M -107.829 964.092 Q -106.286 964.411 -106.810 964.314 Q -105.451 964.383 -104.023 971.336 Q -102.596 978.289 -102.376 985.984 Q -104.188 983.676 -103.814 983.786 Q -103.441 983.897 -103.650 983.857 Q -103.402 982.946 -103.646 981.281 Q -103.890 979.616 -103.562 978.170 Q -103.234 976.724 -102.468 976.226 Q -101.701 975.728 -100.918 975.659 Q -100.135 975.591 -99.504 975.604 Q -98.872 975.618 -98.859 975.723 Q -98.845 975.828 -98.733 975.580 Q -98.621 975.332 -97.103 977.022 Q -95.584 978.711 -95.227 980.399 Q -94.869 982.088 -94.886 983.002 Q -94.903 983.917 -94.813 984.200 Q -94.723 984.482 -94.669 984.517 Q -94.616 984.551 -94.567 984.546 Q -94.519 984.541 -94.536 984.546 Q -94.553 984.551 -94.608 984.613 Q -94.664 984.675 -94.833 984.708 Q -95.002 984.741 -96.145 985.057 Q -97.288 985.374 -97.874 985.229 Q -98.460 985.083 -99.188 984.617 Q -99.916 984.151 -99.975 984.137 Q -100.035 984.124 -101.535 981.410 "></path>
    <path id="STROKE_fd5c09de-298c-4c8f-ae54-21d402cb1846" opacity="1.000" fill="none" stroke="#ffffff" stroke-width="4.775" stroke-opacity="1.000" stroke-linecap="round" stroke-linejoin="round" d="M -93.942 978.811 Q -93.861 979.335 -93.845 979.913 Q -93.829 980.492 -93.834 980.489 Q -93.839 980.487 -93.853 980.371 Q -93.867 980.255 -93.806 981.262 Q -93.744 982.268 -93.279 983.724 "></path>
    <path id="STROKE_c4d216ab-e646-4ff4-9e34-59cf0fecc4f8" opacity="1.000" fill="none" stroke="#ffffff" stroke-width="7.645" stroke-opacity="1.000" stroke-linecap="round" stroke-linejoin="round" d="M -92.082 955.851 Q -92.253 956.033 -94.783 955.566 Q -95.565 956.864 -91.164 965.854 "></path>
    <path id="STROKE_9641b0b5-d5ce-40fa-a174-4dc41bff31e3" opacity="1.000" fill="none" stroke="#ffffff" stroke-width="5.983" stroke-opacity="1.000" stroke-linecap="round" stroke-linejoin="round" d="M -79.672 974.451 Q -79.935 974.516 -79.826 975.276 Q -79.718 976.035 -79.102 976.894 Q -78.486 977.753 -78.590 977.628 Q -78.694 977.504 -78.575 977.580 Q -78.456 977.656 -76.466 977.983 Q -74.475 978.310 -72.202 976.540 Q -69.930 974.771 -68.586 973.500 Q -67.242 972.230 -67.044 971.298 Q -66.845 970.367 -66.930 969.591 Q -67.014 968.815 -67.376 968.770 Q -67.738 968.726 -68.184 968.568 Q -68.629 968.410 -69.333 968.338 Q -70.036 968.267 -71.017 968.298 Q -71.997 968.330 -72.625 968.232 Q -73.253 968.134 -75.037 968.196 Q -76.821 968.258 -78.167 969.495 Q -79.514 970.733 -80.079 971.875 Q -80.644 973.016 -80.660 974.936 Q -80.677 976.856 -80.055 979.664 Q -79.434 982.472 -69.683 986.589 "></path>
    <path id="STROKE_55e37e9b-69a3-4b32-a222-b74cb706d809" opacity="1.000" fill="none" stroke="#ffffff" stroke-width="6.319" stroke-opacity="1.000" stroke-linecap="round" stroke-linejoin="round" d="M -51.056 973.436 Q -51.552 973.356 -52.722 972.447 Q -53.892 971.537 -57.134 971.064 Q -60.375 970.591 -62.252 970.660 Q -64.129 970.729 -65.265 971.055 Q -66.400 971.380 -66.818 972.065 Q -67.236 972.751 -67.394 973.578 Q -67.553 974.405 -66.791 975.621 Q -66.030 976.837 -62.351 978.745 Q -58.673 980.652 -56.702 981.807 Q -54.731 982.961 -53.909 983.770 Q -53.086 984.580 -52.880 985.151 Q -52.674 985.723 -52.660 986.504 Q -52.647 987.285 -52.514 987.560 Q -52.380 987.835 -59.669 990.754 "></path>
  </g>
</svg>